<?xml version="1.0" encoding="UTF-8"?>
<!DOCTYPE svg PUBLIC "-//W3C//DTD SVG 1.1//EN" "http://www.w3.org/Graphics/SVG/1.1/DTD/svg11.dtd">
<!-- Creator: CorelDRAW 2021 (64-Bit) -->
<svg xmlns="http://www.w3.org/2000/svg" xml:space="preserve" width="215.9mm" height="355.6mm" version="1.1" style="shape-rendering:geometricPrecision; text-rendering:geometricPrecision; image-rendering:optimizeQuality; fill-rule:evenodd; clip-rule:evenodd"
viewBox="0 0 21590 35560"
 xmlns:xlink="http://www.w3.org/1999/xlink"
 xmlns:xodm="http://www.corel.com/coreldraw/odm/2003">
 <defs>
  <style type="text/css">
   <![CDATA[
    .str0 {stroke:#FEFEFE;stroke-width:20;stroke-miterlimit:22.9256}
    .str11 {stroke:#72ADEE;stroke-width:20;stroke-miterlimit:22.9256}
    .str8 {stroke:#BBD36C;stroke-width:20;stroke-miterlimit:22.9256}
    .str2 {stroke:#FEFEFE;stroke-width:7.62;stroke-miterlimit:22.9256}
    .str6 {stroke:#5A7757;stroke-width:7.62;stroke-miterlimit:22.9256}
    .str1 {stroke:#72ADEE;stroke-width:7.62;stroke-miterlimit:22.9256}
    .str3 {stroke:#769949;stroke-width:7.62;stroke-miterlimit:22.9256}
    .str7 {stroke:#927769;stroke-width:7.62;stroke-miterlimit:22.9256}
    .str10 {stroke:#B08B55;stroke-width:7.62;stroke-miterlimit:22.9256}
    .str5 {stroke:#BBD36C;stroke-width:7.62;stroke-miterlimit:22.9256}
    .str9 {stroke:#E17555;stroke-width:7.62;stroke-miterlimit:22.9256}
    .str4 {stroke:#F4D284;stroke-width:7.62;stroke-miterlimit:22.9256}
    .str12 {stroke:#E6E7E8;stroke-width:20;stroke-linecap:round;stroke-linejoin:round;stroke-miterlimit:22.9256}
    .fil2 {fill:none}
    .fil0 {fill:#FEFEFE}
    .fil6 {fill:#5A7757}
    .fil7 {fill:#72ADEE}
    .fil5 {fill:#769949}
    .fil1 {fill:#91BEF3}
    .fil8 {fill:#927769}
    .fil10 {fill:#B08B55}
    .fil4 {fill:#BBD36C}
    .fil9 {fill:#E17555}
    .fil3 {fill:#F4D284}
    .fil12 {fill:#201E1E;fill-rule:nonzero}
    .fil11 {fill:#927769;fill-rule:nonzero}
   ]]>
  </style>
 </defs>
 <g id="Capa_x0020_1">
  <metadata id="CorelCorpID_0Corel-Layer"/>
  <g id="_2785412283392">
   <g>
    <path class="fil0 str0" d="M6055.21 3836.43l355.8 1.16 21.85 7.2 -97.38 74.37c-21.28,16.47 -60.27,27.11 -52.06,62.28l0.47 19.05 54.94 21.81 161.18 77.65 99 13.02c-35.97,36.06 -57.23,70.93 -39.67,122.92l-143.45 -82.02 -135.72 -128.74 -67.63 8.59 -281.9 223.33 5.92 -35.91c-4.73,-18.25 -7.96,-36.04 -18.98,-53.94l-17.62 -35.41 292.82 -124.1 12.55 -40.44 -20.56 -25.14c-58.83,-37.86 -96.75,-59.45 -129.56,-105.68z"/>
    <path class="fil1 str1" d="M5799.52 2234.84c-6.14,2.09 -3.05,1.22 -7.86,4.84 -0.6,0.45 -6.7,5.89 -7.1,6.34 -6.72,7.58 -5.72,4.86 -7.51,16.08l-81.3 128.96c-11.59,20.79 -24.85,47.89 -35.68,69.19 -50.34,99.05 -107,319.29 -94.94,434.6 107.98,-2.37 214.23,-2.26 321.94,-4.52 53.5,-1.13 105.12,-2.48 159.22,-2.94 48.95,-0.41 115.11,-4.1 161.71,-0.21 -3.98,-29.2 4.56,-231.79 0.57,-254.38 -2.3,-13.06 5.25,-7.51 -5.83,-9.19 -8.67,14.79 -30.73,39.73 -44.95,46.46 4.13,-55.71 5.38,-29.47 12.07,-65.63 -37.99,15.03 -98.55,106.7 -113.04,119.1 0.13,-35.05 12.74,-51.58 21.22,-81.59 -23.2,9.37 -34.19,33.14 -49.14,46.41 0.18,-24.09 10.46,-47.62 20.19,-66.24 9.9,-18.94 24.08,-32.24 31.88,-50.54 -21.16,9.2 -43.06,21.89 -62.56,33.69l-53.09 37.51c5.81,-37.76 52.95,-67.45 63.49,-90.5 -16.86,-0.45 -31.1,3.87 -42.51,10.29 -5.45,3.07 -9.96,5.52 -16.95,10.13l-14.02 8.49c8.65,-30.58 43.13,-49.78 60.89,-70.24l-28.78 -9.05c-11.64,-2.12 -23.48,-1.35 -35.16,-1.73 29.39,-31.93 133.09,-45.58 180.89,-48.3l-44 -34.46c-15.14,-10.19 -42.94,-19.42 -52.97,-28.41 30.25,-17.83 83.65,1.82 111.94,6.78 -7.73,-21.71 -30.42,-35.56 -42.71,-56.28 37.6,-6.51 67.25,24.25 83.14,41.34 2.78,-4.83 10.46,-38.12 13.17,-46.63 3.29,-10.33 9.76,-33.46 13.93,-41.93 7.16,10.39 12.94,35.65 17.12,49.06 2.72,8.73 5.41,16.55 8.59,25.07l9.87 21.43c0.23,-0.52 1.06,1.42 1.68,2.04l69.95 -79.95c8.57,-9 14.42,-17.93 29.86,-20.69 -2.55,31.18 -21.45,52.87 -28.19,81.73 24.93,-19.68 53.88,-49.69 94.22,-52.4 -39.61,56.69 -46.82,74.39 -77.86,131.01 35.51,0.79 63.37,0.08 94.95,10.39 13.8,4.51 58.79,25.07 63,37.43 -15.58,6.44 -89.32,-1.85 -113.7,-0.02 12.39,10.35 33.67,20.23 48.96,32.49 8.99,7.2 32.88,32.42 34.73,44.76 -18.77,-4.04 -33.89,-10.72 -52.22,-14.63 -14.55,-3.09 -38.69,-6.65 -53.28,-10.23 12.18,23.55 61.04,64 58.47,130.93l-58.92 -62.96c-18.2,-17.43 -48.14,-46.07 -73.25,-51.02 6.13,32.45 21.91,61.92 16.3,102.02 -15.07,-22.15 -26.97,-43.32 -44.1,-62.24 -11.85,-1.74 -2.13,-1.13 -6.26,2.69 0.3,48.39 -0.06,101.77 2.13,146.02 0.81,16.29 -2.47,113.66 5.51,125.87 14.62,9.78 56.39,3.38 77.78,2.93 77.36,-1.6 170.29,1.62 243.33,-2.2 39.98,-2.1 294.35,-4.1 321.8,0.59 2.18,-126.7 -31.79,-263.13 -78.14,-373.65l-49.35 -103.63c-61.31,-116.1 -154.11,-231.98 -270.56,-295.21l-19.57 -10.7c-7.35,-6.02 -1.01,1.03 -5.04,-5.46 -22.44,-1.6 -195.66,-95.54 -395.62,-36.04 -53.65,15.97 -120.2,43.92 -161.64,72.23 -25.44,17.37 -42.66,31.44 -65.42,49.78 -12.7,10.25 -46.94,50.59 -61.28,55.12z"/>
    <path class="fil0 str2" d="M6263.05 3050.74c0.05,13.43 4.4,10.33 20.17,15.42 8.06,2.6 13.84,4.47 22.24,9.39 14.56,5.75 14.27,8.23 26.05,14.76 15.48,0.66 157.04,-61.5 185.79,-71.57 67.46,-23.62 84.18,26.12 52.94,32.99 -14.24,3.13 -30.03,-6.11 -56.88,1.22 -14.49,3.95 -31.75,9.12 -44.09,17.37l7.54 19.31c24.44,-3.59 40.9,-16.99 67.73,-19.53 68.41,-6.47 67.21,51.84 19.14,41.57 -46.6,-9.95 -72.18,12.87 -122.13,22.28 9.67,7.09 58.93,6.28 72.4,6.91 22.44,1.06 17.32,5.02 33.88,6.82 16.56,1.81 20.45,-3.75 29.34,8.39l-80.61 11.61c-0.67,13.21 -1.04,16.65 11.02,19.53 17.99,4.3 140.95,-3.24 190.32,21.59 -8.35,11.04 -12.22,11.81 -19.49,25.24l20.91 5.24c-7.2,16.3 -7.59,-6.54 -22.9,25.63 -37.3,4.9 -33.13,0.91 -43.65,12.12 -4.35,4.63 -0.77,2.77 -7.21,6.7 -2,1.22 -13.65,5.19 -16.93,6.76 -3.31,10.22 2.19,-4.25 4.95,14.97 -21.33,0.16 -147.8,6.35 -156.56,11.74 8.47,6.36 11.87,6.37 25.34,7.24 1.1,15.92 4.86,42.76 11.09,53.2 13.14,1.96 20.04,0.27 30.74,3.84 26.81,8.94 54.34,-0.29 56.65,37.35 -20.6,17.55 -129.25,12.81 -165.33,14.47 5.3,11 0.52,1.83 14.09,9.44l-7.75 30.29c-10.8,5.05 -9.92,0.4 -20.19,6.77 4.78,28.81 16.45,3.65 15.74,32.38 -13.12,5.98 -26.54,-3.36 -19.56,17.33 4.72,13.97 11.88,2.82 23.95,14.66 -7.28,18.14 -20.8,8.73 -39.77,13.01 -17.33,3.92 -11.53,10.41 -38.24,7.55 -87.79,-9.4 -196.37,-1 -293.14,-4.76l1.53 -26.96 34.77 -0.94c6.66,-9.26 2.84,-17.23 17.47,-20.44 9,-1.97 24.69,-3.3 33.56,-4.92 -1.8,-11.65 -3.24,-9.03 -4.56,-22.13 -18.96,-3.73 -38.9,-3.78 -56.4,-8.01 -22.56,-5.45 -23.48,-21.84 -30.72,-30.83 -10.86,-0.55 -26.07,0.21 -36.07,-1.52 -3.63,-0.63 -8.85,-2.28 -11.54,-4.73l-6.59 -11.07c-31.31,-3.02 -45.62,-10.57 -77.89,-10.5 -21,0.04 -60.21,0.38 -74.86,-9.28l1.17 -16.89 25.91 -4.36c0.04,-17.45 5.19,-14.35 7.11,-32.93 -12.22,-6.85 -6.47,-0.82 -14.8,-12.27 -18.9,-25.95 -6.43,-31.09 -5.28,-34.71 4.93,-15.55 0.23,-17.19 -8.01,-19.07l-29.49 -0.87c-69.16,-0.42 -35.7,-1.24 -68.87,-9.46 -11.4,-2.83 -22.94,-1.25 -34.22,-3.95 -0.03,-14.15 -1.22,-19.41 11.93,-21.31 6.44,-9.09 -0.97,-2.9 10.06,-5.86l148.83 -3.43c109.37,-1.72 74.37,-10.74 105.72,-16.77 20.59,-3.96 16.46,0.49 27.48,-12.68l-167.4 -3.05c11.87,-6.21 21.18,-4.07 30.51,-9.01 -21.45,-10.85 -75.24,0.02 -103.83,-5.19 -25.49,-4.64 -22.91,-1.02 -35.19,-11.36 -0.75,-0.63 -2.95,-2.56 -3.7,-3.18 -16.87,-13.98 -4.79,0.66 -10.94,-14.73 -0.34,-0.84 -0.51,-1.84 -0.88,-2.7 -4.2,-9.79 -32.01,-26.14 26,-25.93 96.05,0.36 259.44,-10.35 334.12,-3.32 22.18,2.97 11.6,-2.98 26.2,-6.04 13.24,-2.77 5.94,2.51 29.06,-5.03 12.65,-4.14 23.59,11.44 33.66,11.61 107.63,11.4 77.32,-15.2 94.98,-26.92 -23.61,-13.75 -281.02,0.01 -326.61,-3.91 -104.43,-8.99 -44.92,-101.95 -8.84,-68.74 19.75,18.18 -2.45,31.92 -7.01,40.27l94.98 -1.58 182.54 -14.35 1.63 -33.01c2.74,-24.71 0.52,-57.05 0.08,-74.33 -0.4,-16.15 -1.01,-57.64 1.76,-66.4 -46.6,-3.89 -112.76,-0.2 -161.71,0.21 -54.1,0.46 -105.72,1.81 -159.22,2.94 -107.71,2.26 -218.59,2.9 -326.57,5.28 5.13,208.78 48.79,342.27 147.36,512.49 6.17,10.66 39.02,62.97 43.08,64.85 13.36,6.18 -3,-13.59 8.81,-1.05 3.62,3.84 5.87,12.99 8.99,17.77 9.14,14.03 23.06,10.98 36.63,20.24l9.46 -19.23c16.98,26.83 -2.23,23.01 30.6,37.6 12.54,5.57 22.55,25.95 29.92,40.88 7.28,-5.75 0.39,1.37 6.03,-6.37 1.45,-1.98 2.97,-4.62 4.14,-6.79 6.97,-12.95 10.01,-26.03 27.55,-35.2 -4.15,35.8 -6.17,73.07 21.43,91.4 12.21,-4.87 12.16,-11.16 19.38,-19.64 2.99,20.48 5.19,39.81 17.88,50.05l18.24 -14.92c9.33,36.09 80.85,80.9 111.94,40.06l12.1 -16.49 6.76 11.57c3.17,5.48 3.91,7.28 8.24,11.96 8.11,8.76 13.69,11.23 25.65,11.44l5.68 -22.81c13.04,13.42 9.5,17.75 24.81,29.84 3.87,-8 0.5,-2.98 2.85,-10.22l3.92 -10.06c8.92,12.3 20.68,20.49 37.27,24.21 18.53,-27.33 6.71,-35.19 39.88,-60.98l-3.13 28.76c18.22,2.26 45.01,-16.24 60.11,-20.8 33.91,-10.24 28.1,-6.57 47.78,-35.56l0.66 32.72c30.94,2.14 25.76,-14.84 47.66,-29.55 24.77,-16.64 18.56,-23.43 37.39,-39.94 6.87,12.83 -0.26,29.16 23.16,27.34 46.12,-3.57 75.59,-62.17 85.25,-71.76 13.53,5.83 3.77,11.79 27.1,14.18 10.55,-6.78 12.12,-13.05 19.91,-21.53 7.96,-8.66 12.9,-9.03 23.2,-17.17 16.58,-13.1 13.02,-39.44 21.25,-59.12 18.54,1.67 12.5,18.68 36.82,5.19 48.81,-27.09 33.82,29.52 86.12,-69.49 74.16,-140.35 134.29,-328.53 123.76,-497.08 -27.45,-4.69 -281.82,-2.69 -321.8,-0.59 -73.04,3.82 -165.97,0.6 -243.33,2.2 -21.39,0.45 -63.16,6.85 -77.78,-2.93 -3.89,13.42 -2.77,66 -2.69,79.88 0.13,21.08 0.82,55.16 2.51,89.78z"/>
    <path class="fil2 str3" d="M6418.62 2007.27l-73.98 36.19c12.35,6.5 119.09,29.82 138.84,50.29 21.92,3.87 81.68,45.53 98.21,57.78 32.28,23.91 55.53,48.97 82.1,77.22 33.68,35.83 106.15,144.58 128.07,190.48 81.53,170.71 120.62,296.17 118.01,518.59 -2.07,176 -68.61,360.22 -145.91,487.41 -41.25,67.88 -87.51,131.04 -139.48,178.8 -41.3,37.95 -126.22,96.52 -199.84,118.15 -1.54,8.18 5.95,31.43 7.81,45.55 -66.91,-4.4 -125.7,18.33 -189.75,17.94 -40.23,-0.24 -153.48,-27.31 -185.14,-15.13l5.96 -46.7c-68.18,-19.68 -135.85,-58.08 -178.47,-93 -31.68,-25.96 -47.98,-38.61 -70.38,-65.02 -109.02,-128.48 -189.33,-269.44 -229.35,-451.59 -51.62,-234.92 -22.66,-473.04 85.39,-684 17.63,-34.42 79.66,-140.95 106.34,-168.13 1.79,-11.22 0.79,-8.5 7.51,-16.08 0.4,-0.45 6.5,-5.89 7.1,-6.34 4.81,-3.62 1.72,-2.75 7.86,-4.84 25.34,-39.45 94.27,-92.62 143.78,-121.76 53.53,-31.51 126.92,-60.58 195.07,-70.11 -2.86,-5.57 -4.07,-5.73 -16.85,-10.53 -26.74,-10.04 -15.03,-8.55 -32.33,-18.14 -8.16,-4.53 -6.82,-3.44 -14.79,-9.01 -30.01,-20.97 -40.25,-9.62 -64.41,8.7 -28.98,21.99 -7.89,31.86 -70.21,65.94 -0.66,0.36 -1.48,0.88 -2.13,1.24l-38.81 20.66c0.88,-10.62 0.37,-12.19 6.13,-19.93 9.1,-12.24 9.39,-3.1 19.8,-17.42 16.23,-22.32 61.84,-60.4 44.34,-71.06 -21.72,11.26 -44.18,34.72 -68.57,53.32 -63.88,48.72 -143.59,7.89 -173.93,63.2 -6.77,12.34 -37.21,70.3 -38.34,78.04l19.96 1.15c-29.72,40.03 -46.18,70.74 -85.69,97.86 -24.64,16.91 -79.42,48.02 -93.51,83.61 17.49,-1.35 19.04,-11.75 38.88,-11.18l-9.49 26.06c10.07,-5.98 24.87,-16.15 37.55,-20.07 -8.28,40.45 -37.5,80.4 -67.94,104.97 -60.25,48.63 -42.57,22.47 -75.6,90.78l26.78 -21.41 -4.29 52.23c9.4,-5.13 22.76,-30.03 36.35,-40.92 3.85,137.79 -56.05,145.56 -71.19,183.46l9.79 3.4 0.05 39.29c8.63,-12.11 11.5,-21.43 26.74,-26.21 -10.78,52.99 5.93,126.62 -30.16,173.14 -13.01,16.76 -25.47,17.6 -21.33,45.51l7.4 -23.55c0.19,0.56 1.13,0.73 1.44,2.24 0.29,1.48 1.46,1.79 1.84,2.44 11.37,19.17 4.61,30.8 14.22,47.64 12.28,-17.64 14.3,-55.76 29.93,-76.71 6.65,33.97 9.15,108.54 7.23,144.92 -2.26,42.76 -34.02,82.18 -8,119.77l5.24 -61.91c6,8.36 6.28,14.08 10.77,25.23 4.18,10.39 8.83,18.1 13.47,28.02 4.95,-14.4 7.1,-34.28 15.89,-45.28l26.1 99.73c2.94,20.2 9.27,35.41 12.63,56.16 3.86,23.84 2.19,48.89 2.82,72.88 0.86,32.42 20.5,86.23 39.41,105.23l-0.55 -51.42c12.53,7.06 19.02,30.33 34.77,41 2.89,-7.24 2.44,-10.88 4.24,-19.28l6.75 -18.88c5.35,24.32 6.34,36.26 15.86,58.73 25.14,59.33 28.48,56.82 28.54,121.9 0.01,12.39 0.34,20.33 6.21,29.77 4.79,7.7 11.29,9.35 17.64,16.26l0.77 -70.84c12.38,10.68 28.66,40.94 51.46,58.07l-3.94 -34.07c32.4,17.61 77.36,91.41 91.67,123.59 9.17,20.6 21.93,55.13 36.7,71.86 11.95,13.53 45.35,44.21 59.84,50.32 -11.76,-55.7 -58.89,-114.5 -69.64,-140.77 20.04,9.93 59.17,43.27 78.38,59.01 76.33,62.58 58.21,120.44 120.48,150.37 35.87,17.25 60.64,27.35 100.28,39.54 6.82,1.17 8.19,4.52 3.54,-8.39 -17.31,-8.77 -32.41,-15.73 -48.17,-22.9 -43.6,-19.84 -122,-55.42 -94.1,-110.49l33.2 -2.95c45.74,-5.87 96.03,17.18 142.94,16 52.87,-1.33 92.69,-9.68 142.01,-15.8 29.78,-0.06 39.83,-9.58 76.75,-1.03 18.02,46.19 7.71,57.72 -63.41,96.55l-16.11 12c24.04,-5.14 60.3,-29.57 82.34,-43.75 40.53,-26.06 16.88,-26.93 48.86,-79.79 53.21,-87.94 47.64,-60.23 92.35,-100.87 13.67,-12.42 19.68,-20.48 37.78,-28.03 -5.77,24.89 -53.92,89.62 -60.99,135.48 23.93,-18.88 40.78,-24.41 52.43,-54.3 32.77,-84.06 52.15,-131.53 128.59,-198.36l-14.42 47.7c20.96,-8.34 15.87,-17.6 28.82,-23.32 3.02,-7.18 0.71,-5.11 7.03,-11.11 8.91,16.5 -4.75,48.06 -7.23,65.53 45.95,-17.51 44.16,-101.33 46.9,-127.11 5,-47.07 32.84,-84.43 51.79,-125.71 7.23,11.44 -3.73,23.94 3.39,41.72 6.58,-8.63 9.65,-23 20.22,-37.64l11.6 -11.61 -0.54 58.76c13.16,-15.74 26.29,-44.76 35.19,-68.82 12.07,-32.62 2.5,-63.33 -1.31,-94.36 -6.67,-54.49 17.55,-108.97 23.89,-188.81 13.76,5.38 18.64,28.1 26.13,38.59 10.74,-6.71 7.72,-7.05 16.38,-19.26l18.01 -21.22 4.19 47.31c-2.48,-18.65 14.74,-24.37 -1.24,-59.95 -7.71,-17.16 -23.35,-32.01 -27.15,-50.58 -6.77,-33.09 9.33,-105.6 10.02,-145.29 12.41,13.33 14.77,42.62 27.21,57.31 28.86,-50.18 -5.72,-67.53 -10,-98.22 -2.89,-20.72 1.25,-42.3 -1.12,-63.77 -2.29,-20.69 -8.07,-33.47 -5.32,-57.32 10.77,16 21.15,39.58 31.84,53 1.35,-11.02 3.1,-22.27 3.35,-33.31 0.35,-15.87 -3.22,-20.46 -3.68,-32.49l17.41 20.95c2.31,-7.24 2.7,-9.49 -2.91,-15.48 -6.06,-14.14 -11.63,-13.74 -22.96,-20.17 -53.46,-30.37 -42.08,-55.97 -63.95,-126.06 -7.73,-24.77 -18.93,-42.84 -20.79,-54.46l38.01 15.38 -0.81 -51.22c-64.17,-2.67 -94.1,-77.08 -114.73,-125.39 21.59,2.32 29.31,4.61 45.62,11.9l-6.02 -27.13c14.37,6.14 16.87,13.23 32.97,18.98 -4.81,-21.51 -25.87,-49.37 -41.61,-55.64 -30.44,-12.13 -37.59,-11.89 -66.31,-28.47 -35.5,-20.49 -72.25,-64.16 -86.95,-102.07l37.69 12.56c-5.42,-16.01 -12.12,-24.47 -17.15,-40.95 -7.5,-24.57 -3.24,-18.55 -21.77,-32.17 -30.29,-22.26 -31.56,-26.99 -79.93,-28.38 -30.81,-0.88 -101.75,-19.03 -125.69,-37.05 -11.71,-8.81 -15.3,-17.45 -30.36,-23.8 4.34,-6.28 -0.33,-3.45 7.92,-5.26 5.85,-5.42 20.55,-5.29 21.58,-7.5 0.57,-1.24 2.08,-0.54 2.99,-1.09 -7.13,-11.48 3.29,-4.05 -15.01,-8.5 -16.83,-4.09 -33.46,-9.22 -52.19,-9.39 4.51,22.44 17.33,40.32 30.77,52.65 39,35.78 37.98,21.04 51.02,19.93 9.42,18.83 -9.79,5.61 15.41,32.17 7.62,8.03 14.02,18.83 17.65,30.48 -8.73,-1.37 -26.26,-16.99 -41.26,-23.26 -15.53,-6.49 -33.07,-8.25 -49.19,-15.17 -46.78,-20.08 -51.15,-51.07 -77.81,-54.13z"/>
    <path class="fil3 str4" d="M5819.63 1966.01c-0.32,21.08 -9.69,16.66 -12.5,35.75 17.49,0.28 6.42,4 27.11,-18.09 11.27,-12.04 8.78,-17.17 22.93,-27.54 36.72,-26.87 31,-33.83 59.88,-40.27 -3.58,4.61 -12.39,18.13 -17.18,25.42 -6.98,10.63 -11.46,20.25 -14.28,33.87 21.52,-7.66 32,-25.56 49.09,-43.04 53.69,-54.92 130.77,-63.35 208.74,-62.92 -9.42,25.18 -25.88,30.98 -45.98,45.57 -45.02,32.67 -80.05,30.43 -134.64,45.45 -27.36,7.53 -43.13,19.8 -65.65,26.46l13.96 4.37c-32.38,3.7 -51.2,15.44 -75.68,18.55l-1.48 22.17 104.94 -35.51c18.37,-9.07 13.84,-10.25 39.66,-9.3l-9.44 6.47c17.5,10.66 -28.11,48.74 -44.34,71.06 -10.41,14.32 -10.7,5.18 -19.8,17.42 -5.76,7.74 -5.25,9.31 -6.13,19.93l38.81 -20.66c0.65,-0.36 1.47,-0.88 2.13,-1.24 62.32,-34.08 41.23,-43.95 70.21,-65.94 24.16,-18.32 34.4,-29.67 64.41,-8.7 7.97,5.57 6.63,4.48 14.79,9.01 17.3,9.59 5.59,8.1 32.33,18.14 12.78,4.8 13.99,4.96 16.85,10.53 28.39,-7.36 57.11,-8.41 87.46,-8.35 31.42,0.05 67.64,5.42 95.78,4.58 0.44,-17.86 14.17,-34.05 22.23,-43.75 10.44,-12.56 23.77,-18.52 33.36,-28.02 4.82,-4.77 1.94,-1.71 6.1,-6.81l-122.54 7.5c8.89,-12.12 59.02,-38.84 77.21,-46.47 30.65,-12.87 71.48,-22.64 107.81,-17.6 -12.08,-16.45 -32.67,-26.84 -43.63,-43.78 60.07,-3.41 138.34,37.57 179.81,74.43 18.05,16.05 19.37,31 41.78,44.63l-30.66 -87.78c11.03,2.9 1.04,-1.56 9.02,5.95 0.08,0.08 7.18,7.63 8.2,8.44 13.38,10.65 -9.09,-4.72 3.3,2.22l15.45 7.71c7.96,-7.51 14.63,-5.65 29.79,-6.34 -28.95,-24.29 -88.38,-19.9 -119.92,-43.79 -12.46,-9.44 3.8,-0.58 -17.37,-9.53 -11.11,-4.69 -9.71,-3.81 -14.56,-15.52 38.03,-10.99 126.16,-6.36 164.15,-12.19 -21.63,-2.54 -44.8,-10.92 -66.29,-15.22 -21.44,-4.29 -4.5,-1.9 -19.3,-7.33 -17.72,-6.49 -46.87,-9.46 -66.34,-14.5 -14.2,-3.68 -12.43,-1.86 -16.27,-12.89 15.43,-6.23 71.58,-7.95 95.13,-13.83l76.51 -29.54c-26.81,-26.98 -100.34,18.7 -169.71,-4.96 5.35,-13.21 9.71,-14.15 25.75,-22.71 11.75,-6.26 19.86,-8.37 32.74,-14.54 8.41,-4.02 5.56,-3.88 14.35,-9.18 6.55,-3.95 11.05,-4.96 17.1,-7.15 11.6,-4.19 25.89,-7.77 31.43,-15.98l-5.24 -2.29c-4.52,-0.94 0.23,-1.29 -8.44,-1.15 -36.29,0.58 -81.36,13.01 -129.3,14.24 0.96,-13.03 -0.64,-13.04 8.9,-18.56 42.36,-24.51 48.7,-19.1 89.12,-57 11.09,-10.4 21.56,-20.41 25.07,-38.06 -31.63,0.37 -45.05,31.87 -69.82,41.28 -28.85,10.96 -57.86,13.27 -85.39,22.23 -1.82,-17.92 8.26,-21.81 16.3,-30.77l52.92 -62.34c7.8,-7.73 15.07,-10.49 16.2,-23.16 -7.89,2.8 -21.85,12.82 -31.74,18.14l-64.48 37.27c-14.25,7.76 -14.96,16.14 -33.39,14.17 -0.22,-20.35 24.78,-32.18 34.42,-47.94 17.35,-28.35 43.65,-60.82 41.67,-101.42 -9.25,7.52 -21.1,16.61 -27.11,28.17 -8.81,16.95 -21.1,39.47 -36.88,51.74 -7.24,5.62 -10.57,8.77 -16.81,13.52 -6.46,4.93 -11.07,9.19 -17.46,12.99 -1.89,1.12 -6.78,3.72 -9.34,4.36 -25.34,6.32 -4.14,-40.34 2.68,-61.54 6.58,-20.47 18.39,-43.29 20.61,-64.75 -12.54,5.29 -18.3,17.85 -25.21,29.01l-6.93 10.57c-11.81,20.36 -26.2,34.79 -39.95,54.39 -8.93,12.74 -0.94,9.37 -16.12,11.42 -15.54,-25.77 8.65,-51.31 10.01,-74.55 1.02,-17.44 2.03,-77.29 -3.24,-88.32 -25.57,18.47 -12.77,70.44 -44.44,118.42 -15.45,23.41 -25,48.4 -32.87,20.21 -1.5,-5.39 -2.55,-15.66 -3.16,-20.66 -2.59,-21.18 -12.87,-118.59 -17.77,-127.49 -4.65,6.2 -11.74,68.8 -14.22,83.29 -5.41,31.63 -1.02,62.89 -16.26,83.69 -8.94,-3.1 -11.36,-8.39 -15.29,-17.4 -9.91,-22.75 -22.56,-19.12 -32.08,-58.49 -4.29,-17.76 -3.91,-34.26 -10.62,-51.04l-19.93 -39.35c-2.73,4.55 -0.26,80.6 1.79,96.71 4.47,35.09 15.5,18.37 15.31,92.09 -17.84,-3.04 -14.96,-11.47 -27.79,-27.08l-10.99 -16.14c-1.19,-1.92 -4.19,-6.39 -5.41,-7.97 -0.43,-0.55 -1.11,-1.28 -1.54,-1.82 -13.11,-16.35 -39.27,-63.79 -54.03,-70.27 0.31,26.69 14.29,46.69 20.87,69.59 7.73,26.91 19.9,52.73 18.16,73.73 -11.47,-1.48 -68.57,-34.76 -79.09,-46.95 -14.19,-16.42 -32.59,-63.45 -56.33,-68.3 3.85,19 25.9,63.35 37.01,81.39 16.22,26.35 44.57,36.79 51.45,68.29 -26.76,-0.14 -17.97,-0.5 -36.34,-9.05l-80.43 -38.02c-13.24,-7.71 3.07,-4.45 -17.38,-7.99 4.9,15.34 1.38,5.11 10.55,14.62l59.92 58.56c11.49,8.97 18.31,15.93 20.75,30.84 -19.68,-0.86 -79.03,-9.75 -96.86,-18.98 -10.43,-5.4 -23.58,-12.73 -35.18,-19.14 -20.2,-11.15 -14.12,-12.72 -44.48,-9.25 12.61,4.76 19.02,12.11 30.3,19.96 36.88,25.68 45.31,41.36 93.42,55.5 12.33,3.62 27.74,4.88 33.98,17.15 13.61,26.79 -65.61,8.12 -77.63,6.7l-46.24 -7.42c-6.27,-2.09 -14.69,-6.43 -26.88,-2.64 3.65,10.6 -1.1,2.23 13.22,8.17 7.32,3.04 10.99,5.33 16.69,7.21 29.07,9.58 41.31,21.25 69.31,30.71l16.06 6.89c7.65,4.17 9.07,3.02 10.68,14.77 -63.26,35.9 -145.77,-11.01 -188.13,16.94 7.89,5.65 31.67,9.08 43.83,12.44 15.7,4.35 26.43,9.59 43.91,15.05 28.76,8.98 84.2,-3.02 107.61,6.38l1.13 13.53c-29.58,16.46 -123.85,27.39 -161.18,44.06 14.22,7.97 135.59,0.04 167.11,4.72 -4.19,17.3 -37.61,28.56 -53.47,36.21 -25.3,12.22 -39.34,21.25 -69.97,27.85 -18.72,4.04 -37.03,5.94 -42.23,22.69 15,6.77 47.52,-9.05 64.02,-2.89 -5,7.61 -21.11,14.78 -26.52,23.67z"/>
    <path class="fil4 str5" d="M6364.47 3157.35c-14.16,2.8 -23.2,4.62 -33.01,12.77l-42.99 55.99c-11.41,-9.33 -13.35,-4.4 -27.45,-0.27 8.97,10.91 3.2,6.93 18.84,8.1 9.02,0.68 10.58,-0.97 20.5,-1.01l-0.48 -5.83c0.05,-0.53 -0.02,-1.64 0.1,-2.19 2.14,-9.66 -7.67,-5.3 10.44,-10.39 22.19,-6.24 -2.14,7.8 29.83,-9.09 -3.13,20.1 -7.42,17.07 -4.84,15.03 3.88,3.4 -6.5,3.28 8.98,3.52 5.36,-8.1 6.26,-27.84 30.03,-7.74 11.97,10.13 -1.76,5.88 16.86,11.94 11.29,3.68 77.23,1.84 105.22,7.69l8.28 2.66c-30.29,1.49 -36.56,8.04 -68.9,8.14l-412.3 0.89c-20.52,1.49 -46.3,7.51 -48.52,-5.64 -21.41,10.08 -211.06,10.62 -250.27,10.9 -13.15,1.9 -11.96,7.16 -11.93,21.31 11.28,2.7 22.82,1.12 34.22,3.95 33.17,8.22 -0.29,9.04 68.87,9.46l29.49 0.87c8.24,1.88 12.94,3.52 8.01,19.07 -1.15,3.62 -13.62,8.76 5.28,34.71 8.33,11.45 2.58,5.42 14.8,12.27 -1.92,18.58 -7.07,15.48 -7.11,32.93l-25.91 4.36 -1.17 16.89c14.65,9.66 53.86,9.32 74.86,9.28 32.27,-0.07 46.58,7.48 77.89,10.5l6.59 11.07c2.69,2.45 7.91,4.1 11.54,4.73 10,1.73 25.21,0.97 36.07,1.52 7.24,8.99 8.16,25.38 30.72,30.83 17.5,4.23 37.44,4.28 56.4,8.01 1.32,13.1 2.76,10.48 4.56,22.13 -8.87,1.62 -24.56,2.95 -33.56,4.92 -14.63,3.21 -10.81,11.18 -17.47,20.44l-34.77 0.94 -1.53 26.96c96.77,3.76 205.35,-4.64 293.14,4.76 26.71,2.86 20.91,-3.63 38.24,-7.55 18.97,-4.28 32.49,5.13 39.77,-13.01 -12.07,-11.84 -19.23,-0.69 -23.95,-14.66 -6.98,-20.69 6.44,-11.35 19.56,-17.33 0.71,-28.73 -10.96,-3.57 -15.74,-32.38 10.27,-6.37 9.39,-1.72 20.19,-6.77l7.75 -30.29c-13.57,-7.61 -8.79,1.56 -14.09,-9.44 36.08,-1.66 144.73,3.08 165.33,-14.47 -2.31,-37.64 -29.84,-28.41 -56.65,-37.35 -10.7,-3.57 -17.6,-1.88 -30.74,-3.84 -6.23,-10.44 -9.99,-37.28 -11.09,-53.2 -13.47,-0.87 -16.87,-0.88 -25.34,-7.24 8.76,-5.39 135.23,-11.58 156.56,-11.74 -2.76,-19.22 -8.26,-4.75 -4.95,-14.97 3.28,-1.57 14.93,-5.54 16.93,-6.76 6.44,-3.93 2.86,-2.07 7.21,-6.7 10.52,-11.21 6.35,-7.22 43.65,-12.12 15.31,-32.17 15.7,-9.33 22.9,-25.63l-20.91 -5.24c7.27,-13.43 11.14,-14.2 19.49,-25.24 -49.37,-24.83 -172.33,-17.29 -190.32,-21.59 -12.06,-2.88 -11.69,-6.32 -11.02,-19.53l80.61 -11.61c-8.89,-12.14 -12.78,-6.58 -29.34,-8.39 -16.56,-1.8 -11.44,-5.76 -33.88,-6.82 -13.47,-0.63 -60.4,-2.37 -70.08,-9.47l-79.4 25.96z"/>
    <path class="fil5 str3" d="M6138.37 2042.97c-68.15,9.53 -141.54,38.6 -195.07,70.11 -49.51,29.14 -118.44,82.31 -143.78,121.76 14.34,-4.53 48.58,-44.87 61.28,-55.12 22.76,-18.34 39.98,-32.41 65.42,-49.78 41.44,-28.31 107.99,-56.26 161.64,-72.23 199.96,-59.5 373.18,34.44 395.62,36.04 -19.75,-20.47 -126.49,-43.79 -138.84,-50.29l73.98 -36.19c16.01,-18.13 37.2,-24.88 69.09,-67.38 7.1,2.59 28.18,17.69 60.36,29.16 10.69,3.81 21.98,6.66 33.95,10.27 17.82,5.36 23.07,2.74 30.96,15.01 -35.45,-3.82 -64.22,-1.93 -98.32,-3.25 -8.25,1.81 -3.58,-1.02 -7.92,5.26 15.06,6.35 18.65,14.99 30.36,23.8 23.94,18.02 94.88,36.17 125.69,37.05 48.37,1.39 49.64,6.12 79.93,28.38 18.53,13.62 14.27,7.6 21.77,32.17 5.03,16.48 11.73,24.94 17.15,40.95l-37.69 -12.56c14.7,37.91 51.45,81.58 86.95,102.07 28.72,16.58 35.87,16.34 66.31,28.47 15.74,6.27 36.8,34.13 41.61,55.64 -16.1,-5.75 -18.6,-12.84 -32.97,-18.98l6.02 27.13c-16.31,-7.29 -24.03,-9.58 -45.62,-11.9 20.63,48.31 50.56,122.72 114.73,125.39l0.81 51.22 -38.01 -15.38c1.86,11.62 13.06,29.69 20.79,54.46 21.87,70.09 10.49,95.69 63.95,126.06 11.33,6.43 16.9,6.03 22.96,20.17l14.47 -16.94c12.29,6.01 2.23,-6.88 7.68,6.78 9.7,-31.71 42.93,-36.34 38.8,-94.69 -3.06,-43.31 -10.92,-79.84 -13.34,-122.62l-12.05 24.31 -18.16 -36.91c-15.71,6.39 -21.91,30.58 -33.42,43.47 -8.35,-9.15 -27.96,-41.51 -23.56,-53.51 6.44,-17.52 16.93,-31.26 18.53,-65.59 1.52,-32.66 -32.3,-97.05 -49.17,-120 -14.79,17.17 -6.86,58.58 -16.94,77.44 -38.43,-29.94 -43.27,-114.35 -48.81,-131.67 -8.54,-26.72 -50.78,-100.71 -68.93,-109.71l-1.05 28.54c-19.44,-6.93 -30.54,-27.01 -67.93,-48.25 -4.49,-2.55 -6.54,-3.79 -12.34,-7.83 -7.83,-5.46 -4.98,-2.03 -11,-9.37 -7.11,9.59 -1.17,9.71 -11.78,14.57 -10.79,-12.35 -21.97,-15.15 -30.84,-33.15 -8.2,-16.65 -13.84,-30.48 -22.4,-45.61 -30.13,-53.27 -51.71,-57.97 -60.19,-73.87l-15.45 -7.71c-12.39,-6.94 10.08,8.43 -3.3,-2.22 -1.02,-0.81 -8.12,-8.36 -8.2,-8.44 -7.98,-7.51 2.01,-3.05 -9.02,-5.95l30.66 87.78c-22.41,-13.63 -23.73,-28.58 -41.78,-44.63 -41.47,-36.86 -119.74,-77.84 -179.81,-74.43 10.96,16.94 31.55,27.33 43.63,43.78 -36.33,-5.04 -77.16,4.73 -107.81,17.6 -18.19,7.63 -68.32,34.35 -77.21,46.47l122.54 -7.5c-4.16,5.1 -1.28,2.04 -6.1,6.81 -9.59,9.5 -22.92,15.46 -33.36,28.02 -8.06,9.7 -21.79,25.89 -22.23,43.75 -28.14,0.84 -64.36,-4.53 -95.78,-4.58 -30.35,-0.06 -59.07,0.99 -87.46,8.35z"/>
    <path class="fil6 str6" d="M7051.48 2690.48c5.61,5.99 5.22,8.24 2.91,15.48l-17.41 -20.95c0.46,12.03 4.03,16.62 3.68,32.49 -0.25,11.04 -2,22.29 -3.35,33.31 -10.69,-13.42 -21.07,-37 -31.84,-53 -2.75,23.85 3.03,36.63 5.32,57.32 2.37,21.47 -1.77,43.05 1.12,63.77 4.28,30.69 38.86,48.04 10,98.22 -12.44,-14.69 -14.8,-43.98 -27.21,-57.31 -0.69,39.69 -16.79,112.2 -10.02,145.29 3.8,18.57 19.44,33.42 27.15,50.58 15.98,35.58 -1.24,41.3 1.24,59.95l-4.19 -47.31 -18.01 21.22c-8.66,12.21 -5.64,12.55 -16.38,19.26 -7.49,-10.49 -12.37,-33.21 -26.13,-38.59 -6.34,79.84 -30.56,134.32 -23.89,188.81 3.81,31.03 13.38,61.74 1.31,94.36 -8.9,24.06 -22.03,53.08 -35.19,68.82l0.54 -58.76 -11.6 11.61c-10.57,14.64 -13.64,29.01 -20.22,37.64 -7.12,-17.78 3.84,-30.28 -3.39,-41.72 -18.95,41.28 -46.79,78.64 -51.79,125.71 -2.74,25.78 -0.95,109.6 -46.9,127.11 2.48,-17.47 16.14,-49.03 7.23,-65.53 -6.32,6 -4.01,3.93 -7.03,11.11 9.19,2.48 7.01,-0.54 7.01,8.66 -8.88,1.71 -4.38,-1.18 -11.52,8.76l-3.67 8.08c-0.07,0.16 -0.39,0.86 -0.45,1.01l-5.2 18.5c-6.36,10.59 -2.4,-5.8 -12.77,23.34 -5.63,15.86 -5.69,20.72 -0.27,35.16 21.95,-18.16 16.06,-10.23 16.94,-23.72 10.4,5.8 4.41,0.4 20.33,0.02 -0.65,31.5 -12.56,15.86 -23.7,37.25l32.65 -10.19c9.96,-5.87 4.87,2.35 7.98,-10.14 12.67,3.57 16.99,7.6 33.88,-5.44l-22.34 0.8c4.69,-19.95 23.39,-33.75 32.39,-49.91l-35.93 10.84c12.8,-21.92 39.46,-34.67 64.62,-46.12 18.82,-8.57 60.77,-25.27 74.52,-37.48 19.84,-17.62 62.68,-117.95 73.29,-154.38 -22.24,11.04 -37.06,36.41 -61.05,47.63 -0.64,-16.46 4.33,-30.79 6.81,-43.54l-20.28 15.46c2.9,-26.47 27.51,-62.34 41.88,-78.4 23.05,-25.74 43.52,-22.3 62.77,-59.15 7.6,-14.55 11.07,-26.5 19.05,-39.09 10.31,-16.28 14.66,-22.15 22.01,-38.5 12.03,-26.75 24.57,-64.05 26.72,-96.49 -9.99,6.66 -18.93,20.61 -25.46,31.4 -2.57,-21.67 3.22,-24.8 0.15,-41.81 -8.2,10.2 -25.08,23.94 -35.54,29.23 5.19,-36.12 53.96,-47.75 73.42,-86.8 14.95,-30.02 19.04,-96.18 21.64,-137.9 -17.5,10.38 -22.28,36.73 -36.07,44.44 -11.3,-126.77 53.81,0.98 49.41,-240.72 -7.38,9.91 -11.8,16.87 -20.34,27.9 -4.38,-3.37 -0.74,2.18 -6.74,-7.38 -2.27,-3.6 -3.16,-6.57 -4.84,-11.7l-24.12 40.69c-2.46,3.16 -3.05,3.64 -4.95,5.53 -8.79,-11.38 -17.99,-48.34 -16.03,-64.89 -5.45,-13.66 4.61,-0.77 -7.68,-6.78l-14.47 16.94z"/>
    <path class="fil6 str6" d="M6202.74 2623.61l11.19 -16.73c4.08,-7.96 4.21,-15.88 25.45,-23.39l22.47 23.01c17.13,18.92 29.03,40.09 44.1,62.24 5.61,-40.1 -10.17,-69.57 -16.3,-102.02 25.11,4.95 55.05,33.59 73.25,51.02l58.92 62.96c2.57,-66.93 -46.29,-107.38 -58.47,-130.93 14.59,3.58 38.73,7.14 53.28,10.23 18.33,3.91 33.45,10.59 52.22,14.63 -1.85,-12.34 -25.74,-37.56 -34.73,-44.76 -15.29,-12.26 -36.57,-22.14 -48.96,-32.49 24.38,-1.83 98.12,6.46 113.7,0.02 -4.21,-12.36 -49.2,-32.92 -63,-37.43 -31.58,-10.31 -59.44,-9.6 -94.95,-10.39 31.04,-56.62 38.25,-74.32 77.86,-131.01 -40.34,2.71 -69.29,32.72 -94.22,52.4 6.74,-28.86 25.64,-50.55 28.19,-81.73 -15.44,2.76 -21.29,11.69 -29.86,20.69l-69.95 79.95c-0.62,-0.62 -1.45,-2.56 -1.68,-2.04l-9.87 -21.43c-3.18,-8.52 -5.87,-16.34 -8.59,-25.07 -4.18,-13.41 -9.96,-38.67 -17.12,-49.06 -4.17,8.47 -10.64,31.6 -13.93,41.93 -2.71,8.51 -10.39,41.8 -13.17,46.63 -15.89,-17.09 -45.54,-47.85 -83.14,-41.34 12.29,20.72 34.98,34.57 42.71,56.28 -28.29,-4.96 -81.69,-24.61 -111.94,-6.78 10.03,8.99 37.83,18.22 52.97,28.41l44 34.46c-47.8,2.72 -151.5,16.37 -180.89,48.3 11.68,0.38 23.52,-0.39 35.16,1.73l28.78 9.05c-17.76,20.46 -52.24,39.66 -60.89,70.24l14.02 -8.49c6.99,-4.61 11.5,-7.06 16.95,-10.13 11.41,-6.42 25.65,-10.74 42.51,-10.29 -10.54,23.05 -57.68,52.74 -63.49,90.5l53.09 -37.51c19.5,-11.8 41.4,-24.49 62.56,-33.69 -7.8,18.3 -21.98,31.6 -31.88,50.54 -9.73,18.62 -20.01,42.15 -20.19,66.24 14.95,-13.27 25.94,-37.04 49.14,-46.41 -8.48,30.01 -21.09,46.54 -21.22,81.59 14.49,-12.4 75.05,-104.07 113.04,-119.1 -6.69,36.16 -7.94,9.92 -12.07,65.63 14.22,-6.73 36.28,-31.67 44.95,-46.46z"/>
    <path class="fil5 str3" d="M5819.63 1966.01c-31.67,13.18 -70.49,100.44 -111.23,136.07l-84.07 64.87 0.94 -53.61c-12.96,9.17 -68.33,94.06 -76.38,113.52 -20.98,50.8 -13.94,96.18 -44.62,144.39 -11.4,-13.97 -17.56,-55.18 -23.23,-73.83 -14.78,12.15 -37.68,86.72 -43.65,109.27 -13.96,52.72 1.47,98.8 -9.28,147.57 -4.65,-9.15 -32.02,-65.09 -37.77,-68.79 -7.08,13.09 -5.18,42.66 -6.84,61.16 -8,-4.02 -15.73,-27.36 -21.24,-35.7 -3.98,38.42 -14.01,116.88 -7.75,154.19 2.42,14.41 15.87,45.87 22.3,57.93 15.9,29.82 11.04,35.01 16.61,69.05 5.04,18.14 -0.76,20.6 9.21,44.04 0,-41.8 -0.63,-3.95 15.41,-57.61l9.67 -23.59c3.78,-7.57 8.31,-13.32 12.37,-20.42 15.14,-37.9 75.04,-45.67 71.19,-183.46 -13.59,10.89 -26.95,35.79 -36.35,40.92l4.29 -52.23 -26.78 21.41c33.03,-68.31 15.35,-42.15 75.6,-90.78 30.44,-24.57 59.66,-64.52 67.94,-104.97 -12.68,3.92 -27.48,14.09 -37.55,20.07l9.49 -26.06c-19.84,-0.57 -21.39,9.83 -38.88,11.18 14.09,-35.59 68.87,-66.7 93.51,-83.61 39.51,-27.12 55.97,-57.83 85.69,-97.86l-19.96 -1.15c1.13,-7.74 31.57,-65.7 38.34,-78.04 30.34,-55.31 110.05,-14.48 173.93,-63.2 24.39,-18.6 46.85,-42.06 68.57,-53.32l9.44 -6.47c-25.82,-0.95 -21.29,0.23 -39.66,9.3l-104.94 35.51 1.48 -22.17c24.48,-3.11 43.3,-14.85 75.68,-18.55l-13.96 -4.37c22.52,-6.66 38.29,-18.93 65.65,-26.46 54.59,-15.02 89.62,-12.78 134.64,-45.45 20.1,-14.59 36.56,-20.39 45.98,-45.57 -77.97,-0.43 -155.05,8 -208.74,62.92 -17.09,17.48 -27.57,35.38 -49.09,43.04 2.82,-13.62 7.3,-23.24 14.28,-33.87 4.79,-7.29 13.6,-20.81 17.18,-25.42 -28.88,6.44 -23.16,13.4 -59.88,40.27 -14.15,10.37 -11.66,15.5 -22.93,27.54 -20.69,22.09 -9.62,18.37 -27.11,18.09 2.81,-19.09 12.18,-14.67 12.5,-35.75z"/>
    <path class="fil5 str3" d="M5554.43 3424.21c8.95,10.43 14.09,20.82 19.38,36.48l-26.81 -5.71 8.91 29.36c-29.06,-8 -45.23,-29.7 -69.71,-38.45 3.44,10.61 32.3,50.43 41.47,64.94 12.94,20.5 26.18,48 39.79,65.11 8.32,10.46 44.9,39.03 57.67,47.08l74.64 31.58 -35.43 1.8c11.6,9.32 23.95,20.7 33.06,33.81 -28.14,-1.08 -47.54,-15.19 -72.81,-0.38 11.32,8.39 27.66,12.98 42.12,23.8 32.46,24.28 71.24,81.81 118.32,91.66 116.73,24.41 51.93,-31.22 127.55,31.87l58.09 47.32c-11.93,-2.34 -33.62,-6.45 -46.72,-8.08 -21.42,-2.66 -35.34,3.71 -54.85,5.09 -13.87,0.98 -32.5,-4.54 -48.72,-6.28 -24.82,-2.65 -32.63,1.04 -55.81,1.51 34.34,53.24 123.51,48.83 150.21,56.27 66.63,18.57 56.33,-41.59 165.07,4.36l105.47 37.04c-16.93,14.38 -192.43,64.44 -233.54,74.82 -28.04,7.07 -29.99,13.97 -36.89,40.36 -1.63,6.26 -2.86,13.86 -3.85,22.92 93.7,-44.13 95.06,-43.69 193.02,-80.38 20.08,-7.52 45.39,-19.92 67.19,-23.81 8.57,-5.52 2.17,-1.57 12.37,-5.02 7.27,-2.46 8.75,-2.98 15.62,-5.03l6.63 -25.92c-13.62,-11.16 -2.06,-4.27 -9.76,-15.55 -5.4,-7.9 -3.1,-2.33 -11.09,-5.16 -39.64,-12.19 -64.41,-22.29 -100.28,-39.54 -62.27,-29.93 -44.15,-87.79 -120.48,-150.37 -19.21,-15.74 -58.34,-49.08 -78.38,-59.01 10.75,26.27 57.88,85.07 69.64,140.77 -14.49,-6.11 -47.89,-36.79 -59.84,-50.32 -14.77,-16.73 -27.53,-51.26 -36.7,-71.86 -14.31,-32.18 -59.27,-105.98 -91.67,-123.59l3.94 34.07c-22.8,-17.13 -39.08,-47.39 -51.46,-58.07l-0.77 70.84c-6.35,-6.91 -12.85,-8.56 -17.64,-16.26 -5.87,-9.44 -6.2,-17.38 -6.21,-29.77 -0.06,-65.08 -3.4,-62.57 -28.54,-121.9 -9.52,-22.47 -10.51,-34.41 -15.86,-58.73l-6.75 18.88c-1.8,8.4 -1.35,12.04 -4.24,19.28 -15.75,-10.67 -22.24,-33.94 -34.77,-41l0.55 51.42c-18.91,-19 -38.55,-72.81 -39.41,-105.23 -0.63,-23.99 1.04,-49.04 -2.82,-72.88 -3.36,-20.75 -9.69,-35.96 -12.63,-56.16 0.94,8.62 0.55,16.19 2.07,24.42 1.38,7.46 3.36,10.39 3.77,17.73 0.43,7.85 -1.92,6.7 2.33,16.58 3.22,7.5 8.68,6.61 6.64,36.82 -2.56,37.83 -10.44,-5.78 -10.44,57.19 15.68,9.38 10.16,1.72 10.16,30.49 -11.89,-7.68 -1.03,-3.76 -16.92,-6.77 4.69,9 3.17,7.6 13.53,10.16 0,15.88 2.22,-0.15 -7.41,5.4z"/>
    <path class="fil5 str3" d="M6906.14 2882.4c10.53,168.55 -49.6,356.73 -123.76,497.08 -52.3,99.01 -37.31,42.4 -86.12,69.49 -24.32,13.49 -18.28,-3.52 -36.82,-5.19 -8.23,19.68 -4.67,46.02 -21.25,59.12 -10.3,8.14 -15.24,8.51 -23.2,17.17 -7.79,8.48 -9.36,14.75 -19.91,21.53 -23.33,-2.39 -13.57,-8.35 -27.1,-14.18 -9.66,9.59 -39.13,68.19 -85.25,71.76 -23.42,1.82 -16.29,-14.51 -23.16,-27.34 -18.83,16.51 -12.62,23.3 -37.39,39.94 -21.9,14.71 -16.72,31.69 -47.66,29.55l-0.66 -32.72c-19.68,28.99 -13.87,25.32 -47.78,35.56 -15.1,4.56 -41.89,23.06 -60.11,20.8l3.13 -28.76c-33.17,25.79 -21.35,33.65 -39.88,60.98 -16.59,-3.72 -28.35,-11.91 -37.27,-24.21l-3.92 10.06c-2.35,7.24 1.02,2.22 -2.85,10.22 -15.31,-12.09 -11.77,-16.42 -24.81,-29.84l-5.68 22.81c-11.96,-0.21 -17.54,-2.68 -25.65,-11.44 -4.33,-4.68 -5.07,-6.48 -8.24,-11.96l-6.76 -11.57 -12.1 16.49c-31.09,40.84 -102.61,-3.97 -111.94,-40.06l-18.24 14.92c-12.69,-10.24 -14.89,-29.57 -17.88,-50.05 -7.22,8.48 -7.17,14.77 -19.38,19.64 -27.6,-18.33 -25.58,-55.6 -21.43,-91.4 -17.54,9.17 -20.58,22.25 -27.55,35.2 -1.17,2.17 -2.69,4.81 -4.14,6.79 -5.64,7.74 1.25,0.62 -6.03,6.37 -7.37,-14.93 -17.38,-35.31 -29.92,-40.88 -32.83,-14.59 -13.62,-10.77 -30.6,-37.6l-9.46 19.23c-13.57,-9.26 -27.49,-6.21 -36.63,-20.24 -3.12,-4.78 -5.37,-13.93 -8.99,-17.77 -11.81,-12.54 4.55,7.23 -8.81,1.05 -4.06,-1.88 -36.91,-54.19 -43.08,-64.85 -98.57,-170.22 -132.95,-306.1 -142.73,-513.25 -12.06,-115.31 44.6,-335.55 94.94,-434.6 10.83,-21.3 24.09,-48.4 35.68,-69.19l81.3 -128.96c-26.68,27.18 -88.71,133.71 -106.34,168.13 -108.05,210.96 -137.01,449.08 -85.39,684 40.02,182.15 120.33,323.11 229.35,451.59 22.4,26.41 38.7,39.06 70.38,65.02 42.62,34.92 110.29,73.32 178.47,93 50.94,19.4 116.77,25.96 179.22,26.6 33.68,0.34 65.16,-1.1 97.28,-7.11 33.26,-6.23 54.64,-13.09 84.62,-21.15 73.62,-21.63 158.54,-80.2 199.84,-118.15 51.97,-47.76 98.23,-110.92 139.48,-178.8 77.3,-127.19 143.84,-311.41 145.91,-487.41 2.61,-222.42 -36.48,-347.88 -118.01,-518.59 -21.92,-45.9 -94.39,-154.65 -128.07,-190.48 -26.57,-28.25 -49.82,-53.31 -82.1,-77.22 -16.53,-12.25 -76.29,-53.91 -98.21,-57.78 4.03,6.49 -2.31,-0.56 5.04,5.46l19.57 10.7c116.45,63.23 209.25,179.11 270.56,295.21l49.35 103.63c46.35,110.52 80.32,246.95 78.14,373.65z"/>
    <path class="fil6 str6" d="M5565.7 3324.82c1.8,-27.23 1.16,-26.53 -1.96,-33.79 -0.64,-9.76 -0.34,-9.26 -3.22,-16.65 -0.4,-7.33 -3.51,-11.48 -4.89,-18.95 -1.51,-8.23 -3.99,-14.62 -4.93,-23.24l-26.1 -99.73c-8.79,10.99 -10.94,30.88 -15.89,45.28 -4.63,-9.92 -9.29,-17.63 -13.47,-28.02 -4.48,-11.15 -4.77,-16.87 -10.77,-25.23l-5.24 61.91c-26.02,-37.59 5.74,-77.01 8,-119.77 1.92,-36.38 -0.58,-110.95 -7.23,-144.92 -15.63,20.95 -17.65,59.07 -29.93,76.71 -9.61,-16.84 -2.85,-28.47 -14.22,-47.64 -0.38,-0.65 -1.55,-0.96 -1.84,-2.44 -0.31,-1.51 -1.25,-1.68 -1.44,-2.24l-7.4 23.55c-4.14,-27.91 8.32,-28.75 21.33,-45.51 36.09,-46.52 19.38,-120.15 30.16,-173.14 -15.24,4.78 -18.11,14.1 -26.74,26.21l-0.05 -39.29 -9.8 -3.41c-4.05,7.11 -8.58,12.86 -12.36,20.43l-9.67 23.59c-16.04,53.66 -15.41,15.81 -15.41,57.61 -9.97,-23.44 -4.17,-25.9 -9.21,-44.04 -16.98,-10.28 -15.63,-28.96 -24.89,-43.55l-8.12 11.62c-4.38,5.18 -0.89,2.16 -5.19,5.19 -10.81,-13.66 -19.35,-23.49 -29.58,-33.91 -0.88,18.53 4.98,38.58 7.45,59.32 6.27,52.5 -4.78,107.24 49.98,153.79l-7.53 41.99c-14.15,-13.94 -20.9,-34.5 -34.09,-49.43 -12.91,47.17 13.67,122.25 33.7,156.89 34.47,59.61 85.27,65.95 84.07,113.5 -17.33,-12.2 -28.99,-40.47 -47.17,-50.21l3.49 34.95c-12.67,-7.91 -21.1,-29.78 -35.71,-33.85 28.91,123.7 34.79,78.03 66.17,152.38 27.57,65.3 48.13,76.93 70.28,88.02l0.26 0.5c17.41,9.67 32.2,19.22 42.46,30.69l21.2 -8.17c-13.35,-31.44 -9.5,-64.73 -14.24,-97.09l-0.26 0.09z"/>
    <path class="fil5 str3" d="M6361.67 3914.61l-78.03 32.57c13.32,13.88 3.89,23.12 6.92,57.3 16.41,1.37 36.62,3.41 45.09,12.69 4.99,5.46 7.02,20.91 19.48,21.77 25.71,1.78 6.75,2.17 13.92,-5.9l-21.94 -13.19c64.98,7.48 267.53,81.29 267.62,81.31 -8.19,-10.67 -17.68,-22.36 -27.24,-45.17l-2 -6.98c-29.28,-3.65 -238.77,-46.71 -277.38,-61.99 -13.12,-5.2 -8,-1.26 -14.5,-9.96 20.55,-17.67 75.15,-39.48 102.02,-53.26 120.98,-62.01 84.77,-52.45 172.68,-34.82 39.59,7.94 34.09,-1.52 67.41,-4.65 34.65,-3.25 36.43,-2.45 65,-17.44 0.66,-0.35 1.5,-0.84 2.18,-1.17 10.77,-5.18 32.61,-9.96 42.97,-23.44 -27.1,-7.44 -67,-14.89 -94.07,-11.19 -38.9,5.32 -59.45,-1.11 -97.35,0.26l66.18 -55.19c37.87,-26.09 63.28,-3.92 105.46,-16.32 15.28,-4.49 28.8,-14.18 41.34,-25.2l102.15 -86.36c-23.98,1.17 -47.4,3.59 -68.86,11.71l33.3 -52.62c-25.13,1.76 -50.96,6.53 -76.79,16.42 8.56,-22.82 15.49,-48.44 8.94,-68.47l-34.12 32.88 14.6 -47.06c-44.47,33 -79.65,72.97 -99.94,125.49l0 0c-11.11,22.72 -20.88,47.51 -32.27,76.72 -11.65,29.89 -28.5,35.42 -52.43,54.3 7.07,-45.86 55.22,-110.59 60.99,-135.48 -18.09,7.55 -24.11,15.61 -37.78,28.03 -44.71,40.64 -39.14,12.93 -92.35,100.87 -31.98,52.86 -8.33,53.73 -48.86,79.79 -22.04,14.18 -58.3,38.61 -82.34,43.75z"/>
    <path class="fil7 str1" d="M6364.44 3807.09l-7.68 0.98c-106.46,8.87 -128.35,16.38 -251.53,-2.93 -0.2,-0.28 -24.85,1.18 -25.62,1.17l-3.32 0.86 -0.01 0 -29.99 2.67c-1.94,3.14 -3.46,6.24 -4.59,9.29 -17.36,46.99 57.74,82.57 98.69,101.2 15.76,7.17 27.08,13.01 44.38,21.78 1.14,6.67 0.23,4.63 4.06,8.99 5.66,6.07 0.87,1.59 7.95,8.69 0.39,8.72 4.53,10.09 9.09,12.54 9.83,-6.16 14.31,-21.56 30.28,-38.52 9.8,-10.41 19.69,-26.21 37.27,-30.05 21.94,26.99 12.14,38.37 -5.12,58.89 -25.89,30.79 -37.1,45.74 -68.57,62.65l-27.17 24.42c-52.89,48.46 -155.16,112.83 -220.32,145.76 -16.99,8.58 -18.67,7.3 -22.36,24.91 -2.01,9.59 -4.96,29.04 -4.29,41.28 22.76,-4.25 155.21,-98.58 175.97,-120.05 8.3,-8.58 46.6,-36.33 80.06,-69.32 14.78,-14.57 26.75,-34.22 37.08,-35.49 27.24,-3.34 26.96,10.08 60.66,-7.56 12.12,22.28 42.32,51.88 57.74,67.62 27.86,28.43 109.57,90.01 142.85,107.74 6.75,3.59 14.22,5.6 21.27,9.32 20.74,10.95 39.1,28.77 64.7,25.72 -27.28,-70.43 22.22,-30.2 -97.86,-87.27 -10.34,-4.91 -29.4,-16.8 -40.6,-24.05 -28.84,-18.68 -135.24,-96.08 -135.55,-118.36l58.03 40.14c46.55,33.51 29.2,18.05 65.4,39.43 33.95,20.05 107.23,47.84 149.57,60.03 8.97,-3.59 37.62,-28.57 38.86,-39.67l-122.93 -31.25c-55.22,-13.31 -59.43,-30.43 -87.9,-40.07 -22.73,-9.71 -12.91,-5.68 -45.83,-18.73 -7.57,-4.69 -9.68,-5.2 -16.62,-9.1 -11.72,-9.28 -23.87,-9.52 -40.28,-10.89 -3.03,-34.17 8.61,-38.1 -4.71,-51.98l76.17 -33.27 16.11 -12c71.12,-38.83 81.43,-50.36 63.41,-96.55 -7.07,-1.64 -13.14,-2.61 -18.57,-3.11l0 -0.01 -0.01 0c-22.91,-2.13 -34.1,4.1 -58.17,4.15zm-74.48 112.52c27.2,-25.63 51.04,-46.51 78.9,-66.76l38.1 -6.26c-1.05,5.85 -1.52,5 -10.59,14.09 -4.56,4.56 -7.24,6.87 -12.47,11.18 -7.76,6.38 -22.49,18.62 -28.59,22.69l-47.14 27.53c-8.1,3.9 -21.82,5.74 -18.21,-2.47zm28.4 -62.26c-10.47,16.05 -18.75,31.2 -37.41,41.4 -5.45,1.83 -7.52,-1.86 -11.04,-2.89 -53.22,-15.59 -36.82,-0.48 -67.58,2.7 -14.87,-12.81 -29.46,-26.21 -41.63,-40.11l2.33 0.19c51.48,7.89 103.29,3.14 155.33,-1.29zm-199.2 -2.42c22.69,22.72 48.44,45.09 74.18,64.76 -0.3,0.94 -0.82,1.93 -1.58,2.97 -5.06,4.27 4.27,7.19 -15.85,0.66 -16.48,-5.34 -25.02,-15.42 -40.01,-24l-40.15 -39.41c-5.93,-6.68 1.13,4.14 -5.38,-7.42l28.79 2.44z"/>
    <path class="fil4 str5" d="M5724.79 3252.82c39.21,-0.28 228.86,-0.82 250.27,-10.9 9.52,-9.11 20.76,-13.39 37.35,-5.82 0.45,-0.69 0.91,-1.75 1.19,-2.17 0.29,-0.42 0.92,-1.61 1.29,-2.1l16.03 -11.57c7.4,-3.19 -0.48,-1.23 7.02,-2.61 10.96,-2.01 22.55,13.93 31.17,-6.1 14.41,-33.5 13.78,-3.18 11.89,-25.34l18.84 -7.9 -16.66 0.54 4.83 -30.58c4.13,-9.98 -2.55,-1.45 -2.44,-12.66 -74.68,-7.03 -238.07,3.68 -334.12,3.32 -58.01,-0.21 -30.2,16.14 -26,25.93 0.37,0.86 0.54,1.86 0.88,2.7 6.15,15.39 -5.93,0.75 10.94,14.73 0.75,0.62 2.95,2.55 3.7,3.18 12.28,10.34 9.7,6.72 35.19,11.36 28.59,5.21 82.38,-5.66 103.83,5.19 -9.33,4.94 -18.64,2.8 -30.51,9.01l167.4 3.05c-11.02,13.17 -6.89,8.72 -27.48,12.68 -31.35,6.03 3.65,15.05 -105.72,16.77l-148.83 3.43c-11.03,2.96 -3.62,-3.23 -10.06,5.86z"/>
    <path class="fil8 str7" d="M6202.74 2623.61c11.08,1.68 3.53,-3.87 5.83,9.19 3.99,22.59 -4.55,225.18 -0.57,254.38 -2.77,8.76 -2.16,50.25 -1.76,66.4 0.43,16.95 -3.78,162.45 -6.34,186.94l68.74 -1.31c-0.93,-25.5 -8,-162.26 -8.1,-178.25 -0.08,-13.88 -1.2,-66.46 2.69,-79.88 -7.98,-12.21 -4.7,-109.58 -5.51,-125.87 -2.19,-44.25 -1.83,-97.63 -2.13,-146.02 4.13,-3.82 -5.59,-4.43 6.26,-2.69l-22.47 -23.01c-21.24,7.51 -21.37,15.43 -25.45,23.39l-11.19 16.73z"/>
    <path class="fil7 str1" d="M6063.52 3723.84l-5.96 46.7c31.66,-12.18 144.91,14.89 185.14,15.13 64.05,0.39 122.84,-22.34 189.75,-17.94 -1.86,-14.12 -9.35,-37.37 -7.81,-45.55 -29.98,8.06 -51.36,14.92 -84.62,21.15 -32.12,6.01 -63.6,7.45 -97.28,7.11 -62.45,-0.64 -128.28,-7.2 -179.22,-26.6z"/>
    <path class="fil7 str1" d="M6170.61 4007.49c-7.79,3.33 -10.9,2.12 -38.77,13.41l-206.23 93.71c-15.93,5.85 -25.24,11.06 -38.74,14.95 5.46,14.39 20.68,28.58 30.69,37.33 11.45,4.47 132.65,-60.65 147.06,-68.63 17.79,-9.85 119.51,-67.09 136.42,-83.22l-1.8 -16.79c-6.87,2.05 -8.41,1.7 -15.68,4.16 -10.2,3.45 -6.09,2.52 -12.95,5.08z"/>
    <path class="fil3 str4" d="M6418.62 2007.27c26.66,3.06 31.03,34.05 77.81,54.13 16.12,6.92 33.66,8.68 49.19,15.17 15,6.27 32.53,21.89 41.26,23.26 -3.63,-11.65 -10.03,-22.45 -17.65,-30.48 -25.2,-26.56 -5.99,-13.34 -15.41,-32.17 -13.04,1.11 -12.02,15.85 -51.02,-19.93 -13.44,-12.33 -26.26,-30.21 -30.77,-52.65 18.73,0.17 35.36,5.3 52.19,9.39 18.3,4.45 7.88,-2.98 15.01,8.5 -0.91,0.55 -2.42,-0.15 -2.99,1.09 -1.03,2.21 -15.73,2.08 -21.58,7.5 34.1,1.32 62.87,-0.57 98.32,3.25 -7.89,-12.27 -13.14,-9.65 -30.96,-15.01 -11.97,-3.61 -23.26,-6.46 -33.95,-10.27 -32.18,-11.47 -53.26,-26.57 -60.36,-29.16 -31.89,42.5 -53.08,49.25 -69.09,67.38z"/>
    <polygon class="fil4 str8" points="6107.48,3142.29 6086.32,3183.98 6119.1,3227.34 6167.44,3240.36 6286.06,3234.05 6307.34,3190.63 6312.46,3146.94 6278.06,3139.03 "/>
    <path class="fil9 str9" d="M5929.35 3076.81c23.43,-11.75 20.49,-54.64 -17.78,-49.66 -58.48,16.9 -26.57,81.56 28.59,79.17l218.68 1.33c40.63,-0.92 82.72,0.02 93.76,13.34 11.15,12.59 -34.37,4.77 -73.68,0.12 -31.81,-1.91 -59.21,0.6 -93.35,14.5 -5.46,16.52 -4.44,33.57 -3.62,50.2l27.73 3.11c-7.75,-14.1 -13.64,-28.55 -2.1,-38.35 64.24,-6.12 157.76,-7.14 175.99,1.14 9.02,23.33 0.56,46.43 -12.95,65.8l23.26 1.56c23.6,-16.37 42.33,-36.22 57.34,-55.38 72.45,-21.67 173.83,-56.74 200.33,-52.7 32.77,16.7 76.4,-12.44 30.62,-39.2 -22.79,-13.38 -74.86,5.14 -103.39,16.03l-6.85 -17.06c21.59,-11.81 43.33,-19.22 67.64,-18.93 54.78,14.24 70.74,-31.24 19.42,-42.56 -36.71,-3.67 -151.05,54.01 -226.57,81.02 -15.87,-15.45 -30.11,-37.88 -114.43,-29.64l-288.64 16.16zm-17 -26.3c4.43,0 8.02,3.69 8.02,8.25 0,4.56 -3.59,8.25 -8.02,8.25 -4.43,0 -8.02,-3.69 -8.02,-8.25 0,-4.56 3.59,-8.25 8.02,-8.25zm434.71 67.01c7.75,4.2 6.38,12.96 5,19.77 36.22,-16.37 73.96,-28.17 108.66,-36.71 -8.26,-7.9 -11.73,-16.88 -13.04,-26.3 -30.28,17.24 -64.47,33.39 -100.62,43.24z"/>
    <path class="fil10 str10" d="M5973.46 3242.56c0.91,10.07 22.61,10.38 42.46,7.2l440.61 -4.54c31.21,0.83 87.51,-6.13 25.75,-12.96 -34.55,-1.14 -69.15,-2.2 -101.18,-7.73 -4.57,-24.82 -30.25,-30.16 -35.98,-1.76 -13.12,0.79 -1.98,-10.46 -4.88,-17.34 -6.38,-4.06 -25.67,3.38 -36.24,10.83 -10.27,-2.22 -22.86,-3.97 -35.34,-0.03 -13.32,-7.21 -31.52,-10.46 -34.85,12.31 -3.97,-4.7 -9.69,-8.83 -19.06,-6.97 -5.58,1.15 -8.83,4.15 -12.55,8.83 -4.88,-2.8 -11.51,-4.33 -18.36,-3.07 -7.09,-11.31 -25.8,-8.22 -28.94,3.71 -3.22,-10.67 -7.82,-23.43 -31.26,-27.83 -0.26,-11.09 -4.71,-30.55 -29.38,-31.41l-13.52 5.46c-7.86,4.34 -18.51,10.53 -18,22.07 -1.55,8.53 -9.59,14.76 -23.69,11.78 -11.43,4.61 -23.2,10.27 -27.31,22.89 -16.63,-5.78 -32.57,-6.11 -38.28,8.56z"/>
    <line class="fil2 str11" x1="6059.33" y1="3762.78" x2="6045.91" y2= "3811.71" />
    <path class="fil2 str11" d="M6430.61 3762.82c4.35,14.49 8.37,29.65 10.16,44.37"/>
    <path class="fil11" d="M6050.2 1733.45c24.36,-18.53 53.16,-29.46 80.9,-32.24 27.9,-2.8 54.79,2.64 75.12,16.85l-3.01 4.3c-19.26,-13.46 -44.89,-18.6 -71.59,-15.92 -26.81,2.69 -54.65,13.26 -78.22,31.19l-3.2 -4.18z"/>
    <path class="fil11" d="M6067.71 1753.57c22.97,-20.43 44.71,-28.07 65.28,-28.09 20.5,-0.02 39.66,7.54 57.66,17.53l-2.55 4.59c-17.32,-9.61 -35.69,-16.89 -55.11,-16.87 -19.34,0.02 -39.89,7.3 -61.78,26.77l-3.5 -3.93z"/>
    <path class="fil11" d="M6272.62 1718.42c30.04,-18.02 59.14,-25.35 84.57,-23.91 27.47,1.56 50.65,13.32 66.18,32.89l-4.12 3.28c-14.59,-18.4 -36.43,-29.45 -62.34,-30.92 -24.44,-1.39 -52.51,5.72 -81.59,23.17l-2.7 -4.51z"/>
    <path class="fil11" d="M6283.01 1742.35c3.85,-5.16 9.1,-9.49 15.31,-12.96 13.37,-7.47 31.3,-10.98 49.13,-10.18 17.85,0.8 35.68,5.93 48.83,15.72 6.06,4.51 11.13,10.01 14.77,16.54l-4.59 2.55c-3.26,-5.84 -7.83,-10.79 -13.3,-14.87 -12.28,-9.14 -29.06,-13.93 -45.94,-14.69 -16.9,-0.76 -33.82,2.53 -46.35,9.52 -5.57,3.11 -10.26,6.96 -13.63,11.5l-4.23 -3.13z"/>
    <path class="fil11" d="M6080.78 1762.44c17.63,9.57 36.05,14.05 53.34,13.76 17.74,-0.31 34.29,-5.62 47.61,-15.58 -12.28,-11.94 -28.42,-18.85 -46.74,-18.54 -16.65,0.28 -35.13,6.53 -54.21,20.36zm53.43 19c-19.37,0.33 -40.03,-5 -59.56,-16.43l-3.37 -1.98 3.1 -2.38c21.16,-16.23 41.86,-23.5 60.53,-23.82 20.89,-0.35 39.16,7.99 52.66,22.25l1.95 2.06 -2.2 1.78c-14.6,11.86 -33.18,18.19 -53.11,18.52z"/>
    <path class="fil11" d="M6154.68 1739.62c1.99,2.03 3.59,4.39 4.68,6.96 1.06,2.51 1.64,5.21 1.64,8 0,6.48 -3.06,12.33 -8.02,16.54 -4.83,4.12 -11.48,6.66 -18.78,6.66 -7.31,0 -13.96,-2.54 -18.79,-6.66 -4.95,-4.21 -8.02,-10.06 -8.02,-16.54 0,-2.46 0.45,-4.83 1.27,-7.07 0.85,-2.28 2.1,-4.42 3.68,-6.35l0.56 -0.68 0.83 -0.21c6.58,-1.64 13.46,-2.52 20.03,-2.75 7.16,-0.26 13.95,0.25 19.54,1.34l0.8 0.16 0.58 0.6zm-0.16 9c-0.72,-1.71 -1.76,-3.31 -3.05,-4.74 -5.09,-0.93 -11.15,-1.34 -17.53,-1.11 -5.9,0.21 -12.09,0.97 -18.07,2.4 -0.95,1.28 -1.72,2.67 -2.26,4.15 -0.62,1.66 -0.95,3.43 -0.95,5.26 0,4.88 2.35,9.32 6.15,12.55 3.91,3.33 9.35,5.39 15.39,5.39 6.04,0 11.48,-2.06 15.39,-5.39 3.79,-3.23 6.14,-7.67 6.14,-12.55 0,-2.1 -0.43,-4.11 -1.21,-5.96z"/>
    <path class="fil11" d="M6148.82 1739.13c1.04,1.63 1.86,3.44 2.41,5.38 0.53,1.88 0.82,3.86 0.82,5.91 0,5.27 -1.88,10.07 -4.91,13.55 -3.12,3.6 -7.45,5.82 -12.25,5.82 -4.81,0 -9.14,-2.22 -12.26,-5.82 -3.03,-3.48 -4.9,-8.28 -4.9,-13.55 0,-1.89 0.25,-3.75 0.71,-5.51 0.48,-1.82 1.19,-3.53 2.08,-5.07l0.64 -1.1 1.25 -0.19c4.12,-0.61 8.29,-0.96 12.36,-1.06 4.25,-0.11 8.34,0.05 12.1,0.43l1.27 0.14 0.68 1.07zm-2.66 6.8c-0.29,-1.03 -0.68,-2 -1.14,-2.9 -3.2,-0.28 -6.61,-0.38 -10.12,-0.29 -3.37,0.08 -6.87,0.36 -10.41,0.84 -0.4,0.84 -0.72,1.73 -0.97,2.66 -0.34,1.31 -0.52,2.71 -0.52,4.18 0,3.98 1.38,7.55 3.6,10.12 2.14,2.46 5.07,3.98 8.29,3.98 3.21,0 6.14,-1.52 8.28,-3.98 2.23,-2.57 3.61,-6.14 3.61,-10.12 0,-1.58 -0.22,-3.09 -0.62,-4.49z"/>
    <path class="fil11" d="M6293.78 1755.91c12.38,9.53 31.06,13.76 49.42,13.28 19.05,-0.51 37.61,-6.09 48.23,-16.06l-0.02 -0.03c-11.24,-11.76 -28.08,-17.53 -45.77,-17.23 -17.81,0.29 -36.44,6.74 -51.12,19.39l-0.74 0.65zm49.55 18.52c-20.71,0.55 -41.96,-4.68 -55.29,-16.46l-2.14 -1.89 2.07 -1.98c1.07,-1.03 2.11,-1.97 3.11,-2.82 15.65,-13.48 35.51,-20.35 54.48,-20.66 19.11,-0.32 37.36,5.99 49.66,18.86 0.62,0.65 1.23,1.33 1.84,2.03l1.52 1.77 -1.6 1.73c-11.23,12.1 -32.24,18.86 -53.65,19.42z"/>
    <path class="fil11" d="M6358.35 1731.64c2.57,2.21 4.65,4.87 6.06,7.84 1.38,2.9 2.15,6.07 2.15,9.39 0,6.64 -3.03,12.64 -7.91,16.97 -4.8,4.25 -11.4,6.89 -18.67,6.89 -7.26,0 -13.86,-2.64 -18.66,-6.89 -4.89,-4.33 -7.91,-10.33 -7.91,-16.97 0,-2.15 0.32,-4.25 0.92,-6.25 0.62,-2.04 1.54,-3.99 2.71,-5.78l0.51 -0.77 0.84 -0.29c6.05,-2.08 12.48,-3.5 18.88,-4.29 6.71,-0.83 13.39,-0.97 19.58,-0.48l0.85 0.07 0.65 0.56zm1.31 10.1c-0.99,-2.06 -2.38,-3.94 -4.1,-5.54 -5.59,-0.39 -11.61,-0.23 -17.65,0.52 -5.74,0.71 -11.5,1.95 -16.93,3.74 -0.67,1.16 -1.21,2.38 -1.6,3.67 -0.46,1.51 -0.7,3.1 -0.7,4.74 0,5.08 2.34,9.69 6.12,13.04 3.86,3.43 9.23,5.55 15.18,5.55 5.96,0 11.33,-2.12 15.19,-5.55 3.78,-3.35 6.11,-7.96 6.11,-13.04 0,-2.54 -0.57,-4.95 -1.62,-7.13z"/>
    <path class="fil11" d="M6353.55 1731.74c1.41,1.74 2.53,3.76 3.29,5.96 0.73,2.12 1.13,4.41 1.13,6.79 0,5.32 -1.98,10.15 -5.18,13.66 -3.26,3.57 -7.79,5.79 -12.8,5.79 -5.01,0 -9.53,-2.21 -12.8,-5.79 -3.2,-3.51 -5.18,-8.34 -5.18,-13.66 0,-1.69 0.21,-3.36 0.6,-4.97 0.41,-1.65 1,-3.22 1.76,-4.65l0.55 -1.05 1.16 -0.28c4.16,-1.01 8.42,-1.75 12.63,-2.21 4.33,-0.47 8.66,-0.66 12.85,-0.57l1.23 0.03 0.76 0.95zm-1.69 7.67c-0.42,-1.23 -1,-2.38 -1.7,-3.42 -3.53,-0.02 -7.19,0.17 -10.89,0.57 -3.6,0.39 -7.21,0.99 -10.75,1.8 -0.33,0.77 -0.6,1.57 -0.8,2.4 -0.29,1.17 -0.44,2.42 -0.44,3.73 0,3.97 1.46,7.55 3.81,10.12 2.28,2.51 5.43,4.06 8.9,4.06 3.47,0 6.62,-1.55 8.91,-4.06 2.35,-2.57 3.8,-6.15 3.8,-10.12 0,-1.79 -0.3,-3.5 -0.84,-5.08z"/>
   </g>
   <g>
    <path class="fil12" d="M7474.57 2964.59l0 -551.42 -196.47 0 0 -112.13 526.4 0 0 112.13 -195.54 0 0 551.42 -134.39 0zm486.24 0l-126.96 0 0 -480.98 117.69 0 0 68.27c20.23,-32.29 38.47,-53.45 54.68,-63.48 16.22,-10.04 34.6,-14.99 55.14,-14.99 29.04,0 57,8.04 83.88,23.95l-39.4 110.89c-21.46,-13.89 -41.39,-20.85 -59.77,-20.85 -17.92,0 -33.05,4.94 -45.41,14.67 -12.35,9.9 -22.08,27.5 -29.19,53.14 -7.11,25.64 -10.66,79.4 -10.66,161.1l0 148.28zm239.25 -545.85l0 -117.7 126.97 0 0 117.7 -126.97 0zm0 545.85l0 -480.98 126.97 0 0 480.98 -126.97 0zm251.92 0l0 -663.55 126.97 0 0 239.41c39.23,-44.64 85.57,-67.04 139.32,-67.04 58.54,0 106.88,21.16 145.19,63.64 38.3,42.48 57.46,103.49 57.46,183.04 0,82.16 -19.46,145.5 -58.54,189.98 -39.08,44.33 -86.65,66.57 -142.41,66.57 -27.49,0 -54.53,-7.11 -81.24,-21.16 -26.73,-14.21 -49.74,-34.6 -69.05,-61.48l0 70.59 -117.7 0zm125.11 -249.76c0,49.89 7.88,86.96 23.64,110.75 22.09,33.98 51.28,50.97 87.88,50.97 28.12,0 52.06,-12.05 71.98,-36.14 19.77,-24.1 29.65,-62.09 29.65,-113.84 0,-55.14 -10.03,-94.84 -29.96,-119.24 -19.93,-24.4 -45.41,-36.61 -76.61,-36.61 -30.59,0 -55.91,11.89 -76.15,35.68 -20.23,23.79 -30.43,59.93 -30.43,108.43zm764.42 249.76l0 -71.98c-17.61,25.64 -40.62,46.03 -69.2,61.32 -28.57,15.14 -58.69,22.71 -90.36,22.71 -32.43,0 -61.47,-7.11 -87.11,-21.32 -25.8,-14.21 -44.33,-34.29 -55.76,-59.93 -11.58,-25.79 -17.3,-61.32 -17.3,-106.73l0 -305.05 126.97 0 0 221.49c0,67.81 2.31,109.2 7.1,124.49 4.64,15.3 13.13,27.5 25.64,36.3 12.36,8.96 28.12,13.44 47.27,13.44 21.78,0 41.24,-6.03 58.54,-17.92 17.3,-11.89 29.04,-26.71 35.37,-44.48 6.33,-17.76 9.57,-61.01 9.57,-130.05l0 -203.27 126.97 0 0 480.98 -117.7 0zm685.65 0l-126.96 0 0 -245.13c0,-51.89 -2.79,-85.41 -8.19,-100.55 -5.56,-15.29 -14.36,-27.03 -26.72,-35.52 -12.36,-8.49 -27.19,-12.67 -44.49,-12.67 -22.24,0 -42.17,6.03 -59.78,18.07 -17.76,12.05 -29.8,28.12 -36.29,47.89 -6.64,19.92 -9.89,56.68 -9.89,110.43l0 217.48 -126.96 0 0 -480.98 117.69 0 0 70.59c42.17,-53.91 95.15,-80.79 159.25,-80.79 28.11,0 53.91,5.1 77.24,15.14 23.47,10.19 41.08,23.01 52.97,38.61 12.05,15.76 20.39,33.52 25.02,53.45 4.79,19.93 7.11,48.34 7.11,85.41l0 298.57zm223.2 -332.7l-114.92 -20.39c12.97,-46.96 35.37,-81.71 67.03,-104.26 31.67,-22.55 78.78,-33.83 141.18,-33.83 56.69,0 99.01,6.65 126.81,20.08 27.64,13.44 47.26,30.43 58.53,51.13 11.28,20.7 17,58.54 17,113.83l-1.85 148.28c0,42.17 2,73.38 6.02,93.45 4.01,20.09 11.59,41.55 22.71,64.41l-126.04 0c-3.24,-8.34 -7.42,-20.7 -12.21,-37.07 -2,-7.57 -3.55,-12.51 -4.48,-14.83 -21.62,21.32 -44.79,37.23 -69.5,47.89 -24.71,10.65 -50.97,16.06 -78.93,16.06 -49.27,0 -88.19,-13.44 -116.62,-40.32 -28.42,-26.72 -42.63,-60.7 -42.63,-101.79 0,-27.02 6.49,-51.27 19.47,-72.59 12.97,-21.16 31.04,-37.53 54.51,-48.81 23.33,-11.27 57.01,-21.16 101.02,-29.65 59.32,-11.12 100.55,-21.63 123.41,-31.2l0 -12.82c0,-24.72 -6.02,-42.33 -18.07,-52.98 -12.2,-10.51 -35.05,-15.76 -68.57,-15.76 -22.71,0 -40.32,4.48 -52.98,13.59 -12.82,8.96 -23.02,24.87 -30.89,47.58zm170.51 102.87c-16.21,5.4 -42.01,11.89 -77.37,19.46 -35.22,7.56 -58.4,14.98 -69.2,22.08 -16.54,11.9 -24.87,26.73 -24.87,44.8 0,17.92 6.64,33.21 19.93,46.18 13.28,12.98 30.11,19.47 50.66,19.47 22.85,0 44.79,-7.57 65.64,-22.55 15.29,-11.59 25.48,-25.49 30.27,-42.17 3.24,-10.82 4.94,-31.51 4.94,-61.94l0 -25.33zm250.38 229.83l0 -663.55 126.97 0 0 663.55 -126.97 0zm515.89 0l0 -663.55 491.18 0 0 112.13 -356.8 0 0 147.36 331.78 0 0 112.13 -331.78 0 0 179.8 369.77 0 0 112.13 -504.15 0zm617.21 0l0 -663.55 126.97 0 0 663.55 -126.97 0zm535.51 -151.98l126.97 21.31c-16.22,46.49 -42.02,81.86 -77.08,106.27 -35.21,24.25 -79.24,36.45 -131.9,36.45 -83.57,0 -145.5,-27.34 -185.51,-82.02 -31.67,-43.87 -47.58,-99.16 -47.58,-166.04 0,-79.71 20.86,-142.26 62.41,-187.36 41.55,-45.25 94.21,-67.81 157.86,-67.81 71.35,0 127.73,23.63 169.13,70.9 41.24,47.26 61,119.71 59.15,217.32l-317.87 0c0.93,37.69 11.12,67.04 30.73,88.05 19.46,21 43.87,31.5 72.91,31.5 19.93,0 36.6,-5.4 50.04,-16.22 13.6,-10.8 23.79,-28.26 30.74,-52.35zm7.41 -128.82c-0.92,-36.92 -10.34,-65.03 -28.41,-84.18 -18.08,-19.31 -40.01,-28.89 -65.96,-28.89 -27.64,0 -50.51,10.19 -68.58,30.43 -18.07,20.23 -26.87,47.89 -26.56,82.64l189.51 0zm648.89 -57.47l-125.12 22.25c-4.17,-24.87 -13.74,-43.56 -28.73,-56.23 -14.98,-12.5 -34.29,-18.84 -58.07,-18.84 -31.67,0 -57,10.97 -75.84,32.9 -18.84,21.94 -28.27,58.54 -28.27,109.97 0,57.16 9.58,97.47 28.73,121.1 19.16,23.64 44.8,35.37 76.92,35.37 24.09,0 43.87,-6.95 59.16,-20.7 15.45,-13.74 26.25,-37.37 32.59,-71.05l125.11 21.32c-12.97,57.46 -37.84,100.86 -74.6,130.21 -36.76,29.34 -86.04,44.02 -147.97,44.02 -70.12,0 -126.19,-22.24 -167.9,-66.57 -41.86,-44.48 -62.71,-105.96 -62.71,-184.58 0,-79.54 21.01,-141.33 62.86,-185.66 41.86,-44.33 98.55,-66.42 170.06,-66.42 58.39,0 104.88,12.67 139.48,37.84 34.44,25.18 59.15,63.49 74.3,115.07zm316.17 -142.71l0 101.02 -87.12 0 0 194.76c0,39.55 0.78,62.56 2.48,69.05 1.7,6.49 5.4,11.89 11.43,16.22 5.87,4.17 12.97,6.33 21.46,6.33 11.9,0 28.89,-4.01 51.29,-12.21l10.66 98.86c-29.51,12.67 -62.87,19 -100.25,19 -22.86,0 -43.4,-3.86 -61.79,-11.59 -18.37,-7.71 -31.81,-17.76 -40.31,-29.96 -8.65,-12.36 -14.52,-28.88 -17.92,-49.89 -2.62,-14.83 -4.01,-44.79 -4.01,-90.05l0 -210.52 -58.38 0 0 -101.02 58.38 0 0 -95.46 126.96 -75.07 0 170.53 87.12 0zm59.31 234.62c0,-42.32 10.35,-83.25 31.2,-122.8 20.85,-39.69 50.35,-69.81 88.51,-90.66 38.15,-20.86 80.62,-31.36 127.73,-31.36 72.75,0 132.22,23.63 178.71,70.9 46.5,47.42 69.66,107.04 69.66,179.33 0,72.9 -23.47,133.29 -70.27,181.18 -46.96,47.88 -105.96,71.82 -177.17,71.82 -44.02,0 -86.03,-10.04 -126.04,-29.96 -39.85,-19.93 -70.28,-49.13 -91.13,-87.73 -20.85,-38.47 -31.2,-85.42 -31.2,-140.72zm130.67 6.8c0,47.72 11.28,84.33 33.83,109.67 22.71,25.48 50.51,38.14 83.72,38.14 33.05,0 60.85,-12.66 83.25,-38.14 22.4,-25.34 33.67,-62.25 33.67,-110.6 0,-47.11 -11.27,-83.41 -33.67,-108.74 -22.4,-25.48 -50.2,-38.15 -83.25,-38.15 -33.21,0 -61.01,12.67 -83.72,38.15 -22.55,25.33 -33.83,61.94 -33.83,109.67zm586.49 239.56l-126.97 0 0 -480.98 117.7 0 0 68.27c20.23,-32.29 38.46,-53.45 54.68,-63.48 16.22,-10.04 34.6,-14.99 55.14,-14.99 29.04,0 56.99,8.04 83.87,23.95l-39.39 110.89c-21.47,-13.89 -41.39,-20.85 -59.78,-20.85 -17.91,0 -33.05,4.94 -45.41,14.67 -12.35,9.9 -22.08,27.5 -29.19,53.14 -7.1,25.64 -10.65,79.4 -10.65,161.1l0 148.28zm333.78 -332.7l-114.92 -20.39c12.98,-46.96 35.38,-81.71 67.03,-104.26 31.67,-22.55 78.78,-33.83 141.18,-33.83 56.69,0 99.01,6.65 126.81,20.08 27.65,13.44 47.26,30.43 58.54,51.13 11.27,20.7 16.99,58.54 16.99,113.83l-1.85 148.28c0,42.17 2.01,73.38 6.03,93.45 4.01,20.09 11.58,41.55 22.7,64.41l-126.04 0c-3.24,-8.34 -7.41,-20.7 -12.2,-37.07 -2.01,-7.57 -3.55,-12.51 -4.48,-14.83 -21.62,21.32 -44.8,37.23 -69.51,47.89 -24.71,10.65 -50.97,16.06 -78.93,16.06 -49.27,0 -88.19,-13.44 -116.61,-40.32 -28.43,-26.72 -42.63,-60.7 -42.63,-101.79 0,-27.02 6.49,-51.27 19.46,-72.59 12.97,-21.16 31.05,-37.53 54.52,-48.81 23.33,-11.27 57,-21.16 101.02,-29.65 59.31,-11.12 100.55,-21.63 123.41,-31.2l0 -12.82c0,-24.72 -6.02,-42.33 -18.07,-52.98 -12.2,-10.51 -35.06,-15.76 -68.58,-15.76 -22.7,0 -40.31,4.48 -52.98,13.59 -12.82,8.96 -23.01,24.87 -30.89,47.58zm170.52 102.87c-16.22,5.4 -42.02,11.89 -77.38,19.46 -35.22,7.56 -58.39,14.98 -69.2,22.08 -16.53,11.9 -24.87,26.73 -24.87,44.8 0,17.92 6.64,33.21 19.93,46.18 13.28,12.98 30.11,19.47 50.66,19.47 22.86,0 44.79,-7.57 65.65,-22.55 15.28,-11.59 25.48,-25.49 30.27,-42.17 3.24,-10.82 4.94,-31.51 4.94,-61.94l0 -25.33zm250.37 229.83l0 -663.55 126.97 0 0 663.55 -126.97 0z"/>
    <path class="fil12" d="M8458.65 3519.33l-61.46 0 0 -36.86c-10.24,14.36 -22.42,25.09 -36.37,32.34 -13.95,7.18 -28.07,10.81 -42.25,10.81 -28.96,0 -53.72,-11.61 -74.37,-34.92 -20.56,-23.3 -30.88,-55.72 -30.88,-97.42 0,-42.59 10,-75.01 30.08,-97.19 20.08,-22.17 45.4,-33.22 76.05,-33.22 28.07,0 52.42,11.69 72.9,35l0 -125 66.3 0 0 346.46zm-177.1 -130.41c0,26.86 3.71,46.3 11.04,58.31 10.73,17.42 25.65,26.13 44.84,26.13 15.25,0 28.23,-6.53 38.88,-19.6 10.72,-13.06 16.04,-32.5 16.04,-58.47 0,-28.95 -5.16,-49.76 -15.56,-62.5 -10.41,-12.74 -23.63,-19.11 -39.84,-19.11 -15.73,0 -28.87,6.29 -39.52,18.87 -10.56,12.58 -15.88,31.37 -15.88,56.37zm387.51 51.06l66.29 11.13c-8.47,24.27 -21.93,42.73 -40.25,55.48 -18.38,12.66 -41.36,19.03 -68.86,19.03 -43.64,0 -75.98,-14.27 -96.86,-42.83 -16.54,-22.9 -24.84,-51.77 -24.84,-86.69 0,-41.61 10.89,-74.28 32.58,-97.82 21.7,-23.63 49.2,-35.41 82.42,-35.41 37.26,0 66.7,12.34 88.31,37.02 21.54,24.68 31.86,62.5 30.89,113.47l-165.98 0c0.49,19.67 5.81,35 16.05,45.97 10.17,10.97 22.91,16.45 38.07,16.45 10.4,0 19.12,-2.82 26.13,-8.46 7.1,-5.65 12.42,-14.77 16.05,-27.34zm3.87 -67.27c-0.49,-19.27 -5.41,-33.95 -14.84,-43.95 -9.44,-10.08 -20.89,-15.08 -34.44,-15.08 -14.43,0 -26.36,5.32 -35.8,15.88 -9.44,10.57 -14.04,25.01 -13.88,43.15l98.96 0zm254.52 146.62l0 -346.46 66.29 0 0 346.46 -66.29 0zm183.79 -173.72l-60 -10.64c6.78,-24.52 18.47,-42.66 35,-54.43 16.54,-11.78 41.13,-17.67 73.71,-17.67 29.6,0 51.7,3.47 66.21,10.48 14.44,7.02 24.69,15.89 30.57,26.7 5.89,10.81 8.87,30.57 8.87,59.44l-0.97 77.42c0,22.01 1.05,38.31 3.15,48.79 2.1,10.49 6.05,21.7 11.86,33.63l-65.81 0c-1.69,-4.36 -3.88,-10.81 -6.37,-19.36 -1.05,-3.95 -1.86,-6.53 -2.35,-7.74 -11.29,11.13 -23.38,19.44 -36.28,25.01 -12.91,5.56 -26.62,8.38 -41.22,8.38 -25.72,0 -46.04,-7.02 -60.89,-21.05 -14.83,-13.95 -22.25,-31.69 -22.25,-53.14 0,-14.12 3.39,-26.78 10.16,-37.91 6.77,-11.05 16.21,-19.6 28.47,-25.49 12.17,-5.88 29.76,-11.04 52.74,-15.48 30.97,-5.81 52.5,-11.29 64.44,-16.29l0 -6.69c0,-12.91 -3.15,-22.1 -9.44,-27.67 -6.37,-5.48 -18.31,-8.22 -35.81,-8.22 -11.85,0 -21.05,2.34 -27.66,7.1 -6.69,4.68 -12.01,12.98 -16.13,24.83zm89.04 53.72c-8.47,2.82 -21.93,6.2 -40.41,10.16 -18.38,3.95 -30.48,7.82 -36.12,11.53 -8.64,6.21 -12.99,13.96 -12.99,23.39 0,9.35 3.47,17.34 10.4,24.11 6.94,6.78 15.73,10.17 26.46,10.17 11.93,0 23.38,-3.96 34.27,-11.78 7.99,-6.05 13.31,-13.31 15.81,-22.02 1.69,-5.65 2.58,-16.45 2.58,-32.33l0 -13.23zm265.64 120l0 -346.46 112.19 0c42.5,0 70.16,1.69 83.07,5.16 19.84,5.24 36.45,16.53 49.84,33.95 13.38,17.42 20.08,39.92 20.08,67.5 0,21.29 -3.87,39.11 -11.53,53.63 -7.75,14.52 -17.51,25.89 -29.36,34.2 -11.86,8.23 -23.95,13.71 -36.21,16.37 -16.69,3.31 -40.81,5 -72.43,5l-45.48 0 0 130.65 -70.17 0zm70.17 -287.91l0 98.71 38.15 0c27.5,0 45.8,-1.86 55.08,-5.48 9.27,-3.63 16.53,-9.28 21.77,-17.1 5.25,-7.74 7.91,-16.7 7.91,-27.01 0,-12.67 -3.71,-23.08 -11.05,-31.3 -7.42,-8.23 -16.7,-13.39 -28.07,-15.48 -8.3,-1.53 -25,-2.34 -50.16,-2.34l-33.63 0zm315.5 287.91l-66.3 0 0 -251.14 61.46 0 0 35.65c10.56,-16.85 20.08,-27.9 28.54,-33.14 8.48,-5.25 18.07,-7.83 28.79,-7.83 15.17,0 29.77,4.19 43.8,12.5l-20.56 57.9c-11.21,-7.25 -21.62,-10.88 -31.22,-10.88 -9.35,0 -17.25,2.58 -23.7,7.66 -6.46,5.17 -11.54,14.35 -15.25,27.75 -3.71,13.38 -5.56,41.44 -5.56,84.11l0 77.42zm109.44 -128.63c0,-22.1 5.4,-43.47 16.28,-64.12 10.89,-20.73 26.29,-36.45 46.22,-47.34 19.92,-10.89 42.1,-16.37 66.69,-16.37 37.99,0 69.04,12.34 93.31,37.02 24.27,24.76 36.37,55.88 36.37,93.63 0,38.07 -12.26,69.6 -36.69,94.6 -24.52,25 -55.33,37.5 -92.51,37.5 -22.98,0 -44.92,-5.24 -65.81,-15.65 -20.8,-10.4 -36.69,-25.64 -47.58,-45.8 -10.88,-20.09 -16.28,-44.6 -16.28,-73.47zm68.22 3.54c0,24.93 5.89,44.04 17.66,57.27 11.86,13.3 26.37,19.91 43.71,19.91 17.26,0 31.78,-6.61 43.47,-19.91 11.69,-13.23 17.58,-32.5 17.58,-57.75 0,-24.59 -5.89,-43.55 -17.58,-56.77 -11.69,-13.31 -26.21,-19.93 -43.47,-19.93 -17.34,0 -31.85,6.62 -43.71,19.93 -11.77,13.22 -17.66,32.34 -17.66,57.25zm311.87 125.09l-101.22 -251.14 69.68 0 47.26 128.16 13.71 42.81c3.63,-10.88 5.97,-18.06 6.85,-21.52 2.27,-7.11 4.6,-14.2 7.19,-21.29l47.9 -128.16 68.23 0 -99.76 251.14 -59.84 0zm200.08 -285.01l0 -61.45 66.29 0 0 61.45 -66.29 0zm0 285.01l0 -251.14 66.29 0 0 251.14 -66.29 0zm362.83 0l-66.29 0 0 -127.99c0,-27.09 -1.45,-44.59 -4.27,-52.5 -2.9,-7.98 -7.5,-14.11 -13.95,-18.55 -6.46,-4.43 -14.2,-6.61 -23.23,-6.61 -11.62,0 -22.02,3.14 -31.21,9.43 -9.28,6.29 -15.57,14.68 -18.96,25.01 -3.46,10.4 -5.16,29.59 -5.16,57.66l0 113.55 -66.29 0 0 -251.14 61.45 0 0 36.86c22.02,-28.15 49.68,-42.18 83.15,-42.18 14.68,0 28.15,2.66 40.33,7.91 12.25,5.32 21.45,12.01 27.66,20.15 6.29,8.23 10.64,17.51 13.06,27.91 2.5,10.4 3.71,25.24 3.71,44.6l0 155.89zm285.9 -176.62l-65.33 11.62c-2.17,-12.99 -7.17,-22.75 -14.99,-29.36 -7.83,-6.54 -17.91,-9.84 -30.33,-9.84 -16.53,0 -29.75,5.73 -39.6,17.18 -9.84,11.45 -14.76,30.57 -14.76,57.42 0,29.84 5,50.89 15.01,63.23 10,12.33 23.38,18.46 40.16,18.46 12.58,0 22.9,-3.62 30.89,-10.8 8.06,-7.18 13.7,-19.52 17.01,-37.1l65.33 11.13c-6.78,30 -19.76,52.66 -38.95,67.99 -19.2,15.32 -44.93,22.98 -77.26,22.98 -36.62,0 -65.89,-11.61 -87.67,-34.76 -21.85,-23.22 -32.74,-55.32 -32.74,-96.37 0,-41.53 10.97,-73.79 32.82,-96.94 21.86,-23.15 51.45,-34.68 88.79,-34.68 30.49,0 54.76,6.62 72.83,19.76 17.98,13.14 30.89,33.15 38.79,60.08zm50.4 -108.39l0 -61.45 66.29 0 0 61.45 -66.29 0zm0 285.01l0 -251.14 66.29 0 0 251.14 -66.29 0zm183.79 -173.72l-60 -10.64c6.78,-24.52 18.47,-42.66 35.01,-54.43 16.53,-11.78 41.12,-17.67 73.71,-17.67 29.6,0 51.7,3.47 66.21,10.48 14.44,7.02 24.68,15.89 30.57,26.7 5.88,10.81 8.86,30.57 8.86,59.44l-0.96 77.42c0,22.01 1.04,38.31 3.14,48.79 2.1,10.49 6.05,21.7 11.86,33.63l-65.81 0c-1.69,-4.36 -3.87,-10.81 -6.37,-19.36 -1.05,-3.95 -1.86,-6.53 -2.34,-7.74 -11.29,11.13 -23.39,19.44 -36.29,25.01 -12.91,5.56 -26.61,8.38 -41.21,8.38 -25.73,0 -46.05,-7.02 -60.89,-21.05 -14.84,-13.95 -22.26,-31.69 -22.26,-53.14 0,-14.12 3.39,-26.78 10.16,-37.91 6.77,-11.05 16.21,-19.6 28.47,-25.49 12.18,-5.88 29.76,-11.04 52.75,-15.48 30.96,-5.81 52.49,-11.29 64.43,-16.29l0 -6.69c0,-12.91 -3.14,-22.1 -9.43,-27.67 -6.37,-5.48 -18.31,-8.22 -35.81,-8.22 -11.86,0 -21.05,2.34 -27.67,7.1 -6.69,4.68 -12.01,12.98 -16.13,24.83zm89.04 53.72c-8.47,2.82 -21.93,6.2 -40.4,10.16 -18.39,3.95 -30.49,7.82 -36.13,11.53 -8.63,6.21 -12.99,13.96 -12.99,23.39 0,9.35 3.47,17.34 10.41,24.11 6.93,6.78 15.72,10.17 26.45,10.17 11.93,0 23.38,-3.96 34.27,-11.78 7.99,-6.05 13.31,-13.31 15.81,-22.02 1.69,-5.65 2.58,-16.45 2.58,-32.33l0 -13.23zm495.49 120l-61.45 0 0 -36.86c-10.24,14.36 -22.42,25.09 -36.37,32.34 -13.95,7.18 -28.07,10.81 -42.26,10.81 -28.95,0 -53.71,-11.61 -74.36,-34.92 -20.56,-23.3 -30.88,-55.72 -30.88,-97.42 0,-42.59 9.99,-75.01 30.08,-97.19 20.08,-22.17 45.4,-33.22 76.05,-33.22 28.06,0 52.42,11.69 72.9,35l0 -125 66.29 0 0 346.46zm-177.1 -130.41c0,26.86 3.72,46.3 11.05,58.31 10.73,17.42 25.65,26.13 44.84,26.13 15.25,0 28.23,-6.53 38.87,-19.6 10.73,-13.06 16.05,-32.5 16.05,-58.47 0,-28.95 -5.16,-49.76 -15.56,-62.5 -10.41,-12.74 -23.63,-19.11 -39.84,-19.11 -15.73,0 -28.87,6.29 -39.52,18.87 -10.56,12.58 -15.89,31.37 -15.89,56.37zm387.52 51.06l66.29 11.13c-8.47,24.27 -21.94,42.73 -40.25,55.48 -18.38,12.66 -41.37,19.03 -68.87,19.03 -43.63,0 -75.97,-14.27 -96.86,-42.83 -16.53,-22.9 -24.83,-51.77 -24.83,-86.69 0,-41.61 10.89,-74.28 32.58,-97.82 21.69,-23.63 49.2,-35.41 82.42,-35.41 37.26,0 66.7,12.34 88.31,37.02 21.53,24.68 31.86,62.5 30.88,113.47l-165.97 0c0.49,19.67 5.81,35 16.05,45.97 10.16,10.97 22.9,16.45 38.07,16.45 10.4,0 19.12,-2.82 26.13,-8.46 7.09,-5.65 12.42,-14.77 16.05,-27.34zm3.87 -67.27c-0.49,-19.27 -5.41,-33.95 -14.84,-43.95 -9.44,-10.08 -20.89,-15.08 -34.44,-15.08 -14.43,0 -26.37,5.32 -35.8,15.88 -9.44,10.57 -14.04,25.01 -13.88,43.15l98.96 0zm120.08 146.62l0 -346.46 66.29 0 0 346.46 -66.29 0zm490.98 -127.74l67.74 20.8c-10.4,38.14 -27.74,66.46 -51.93,85 -24.2,18.47 -54.84,27.75 -92.02,27.75 -46.06,0 -83.87,-15.73 -113.56,-47.19 -29.59,-31.44 -44.43,-74.43 -44.43,-129.03 0,-57.66 14.92,-102.5 44.67,-134.43 29.77,-31.94 68.96,-47.91 117.51,-47.91 42.42,0 76.86,12.58 103.31,37.66 15.8,14.84 27.58,36.13 35.49,63.95l-69.2 16.45c-4.11,-17.9 -12.66,-32.1 -25.64,-42.49 -13.07,-10.41 -28.88,-15.57 -47.43,-15.57 -25.73,0 -46.61,9.19 -62.58,27.66 -16.05,18.39 -24.04,48.23 -24.04,89.52 0,43.71 7.91,74.92 23.64,93.47 15.8,18.63 36.29,27.9 61.53,27.9 18.63,0 34.68,-5.88 48.06,-17.74 13.39,-11.85 23.07,-30.4 28.88,-55.8zm192.67 -218.72l0 128.39c21.53,-25.56 47.34,-38.39 77.26,-38.39 15.4,0 29.28,2.82 41.61,8.47 12.34,5.73 21.62,12.9 27.91,21.77 6.29,8.79 10.56,18.55 12.82,29.28 2.34,10.72 3.47,27.34 3.47,49.84l0 147.1 -66.29 0 0 -132.42c0,-26.3 -1.29,-42.99 -3.8,-50.08 -2.57,-7.1 -7.09,-12.75 -13.54,-16.86 -6.46,-4.19 -14.52,-6.29 -24.28,-6.29 -11.13,0 -21.05,2.66 -29.84,8.06 -8.79,5.33 -15.16,13.39 -19.2,24.19 -4.1,10.73 -6.12,26.7 -6.12,47.75l0 125.65 -66.3 0 0 -346.46 66.3 0zm279.6 172.74l-60 -10.64c6.78,-24.52 18.47,-42.66 35.01,-54.43 16.53,-11.78 41.12,-17.67 73.7,-17.67 29.61,0 51.7,3.47 66.22,10.48 14.43,7.02 24.68,15.89 30.56,26.7 5.89,10.81 8.87,30.57 8.87,59.44l-0.97 77.42c0,22.01 1.05,38.31 3.15,48.79 2.1,10.49 6.05,21.7 11.86,33.63l-65.81 0c-1.69,-4.36 -3.87,-10.81 -6.37,-19.36 -1.05,-3.95 -1.86,-6.53 -2.34,-7.74 -11.29,11.13 -23.39,19.44 -36.29,25.01 -12.91,5.56 -26.62,8.38 -41.22,8.38 -25.72,0 -46.04,-7.02 -60.88,-21.05 -14.84,-13.95 -22.26,-31.69 -22.26,-53.14 0,-14.12 3.39,-26.78 10.16,-37.91 6.77,-11.05 16.21,-19.6 28.47,-25.49 12.17,-5.88 29.76,-11.04 52.74,-15.48 30.97,-5.81 52.5,-11.29 64.44,-16.29l0 -6.69c0,-12.91 -3.15,-22.1 -9.43,-27.67 -6.37,-5.48 -18.32,-8.22 -35.82,-8.22 -11.85,0 -21.05,2.34 -27.66,7.1 -6.69,4.68 -12.01,12.98 -16.13,24.83zm89.04 53.72c-8.47,2.82 -21.93,6.2 -40.41,10.16 -18.38,3.95 -30.48,7.82 -36.12,11.53 -8.63,6.21 -12.99,13.96 -12.99,23.39 0,9.35 3.47,17.34 10.4,24.11 6.94,6.78 15.73,10.17 26.46,10.17 11.93,0 23.38,-3.96 34.27,-11.78 7.99,-6.05 13.31,-13.31 15.81,-22.02 1.69,-5.65 2.58,-16.45 2.58,-32.33l0 -13.23zm349.44 -56.62l-65.32 11.62c-2.18,-12.99 -7.18,-22.75 -15,-29.36 -7.82,-6.54 -17.91,-9.84 -30.32,-9.84 -16.54,0 -29.76,5.73 -39.6,17.18 -9.84,11.45 -14.76,30.57 -14.76,57.42 0,29.84 5,50.89 15,63.23 10,12.33 23.39,18.46 40.16,18.46 12.58,0 22.91,-3.62 30.89,-10.8 8.06,-7.18 13.71,-19.52 17.02,-37.1l65.32 11.13c-6.78,30 -19.76,52.66 -38.95,67.99 -19.2,15.32 -44.92,22.98 -77.26,22.98 -36.61,0 -65.89,-11.61 -87.66,-34.76 -21.86,-23.22 -32.75,-55.32 -32.75,-96.37 0,-41.53 10.97,-73.79 32.83,-96.94 21.85,-23.15 51.45,-34.68 88.79,-34.68 30.48,0 54.76,6.62 72.82,19.76 17.99,13.14 30.89,33.15 38.79,60.08zm34.93 47.99c0,-22.1 5.4,-43.47 16.28,-64.12 10.89,-20.73 26.3,-36.45 46.22,-47.34 19.92,-10.89 42.1,-16.37 66.69,-16.37 37.99,0 69.04,12.34 93.31,37.02 24.27,24.76 36.38,55.88 36.38,93.63 0,38.07 -12.27,69.6 -36.7,94.6 -24.52,25 -55.32,37.5 -92.5,37.5 -22.99,0 -44.92,-5.24 -65.81,-15.65 -20.81,-10.4 -36.7,-25.64 -47.59,-45.8 -10.88,-20.09 -16.28,-44.6 -16.28,-73.47zm68.22 3.54c0,24.93 5.89,44.04 17.66,57.27 11.86,13.3 26.38,19.91 43.72,19.91 17.25,0 31.77,-6.61 43.47,-19.91 11.69,-13.23 17.58,-32.5 17.58,-57.75 0,-24.59 -5.89,-43.55 -17.58,-56.77 -11.7,-13.31 -26.22,-19.93 -43.47,-19.93 -17.34,0 -31.86,6.62 -43.72,19.93 -11.77,13.22 -17.66,32.34 -17.66,57.25z"/>
   </g>
  </g>
  <rect class="fil2 str12" x="4364.27" y="735.65" width="11697.02" height="4104.68"/>
 </g>
</svg>
