<?xml version="1.0" encoding="UTF-8"?>
<!DOCTYPE svg PUBLIC "-//W3C//DTD SVG 1.1//EN" "http://www.w3.org/Graphics/SVG/1.1/DTD/svg11.dtd">
<!-- Creator: CorelDRAW 2021 (64-Bit) -->
<svg xmlns="http://www.w3.org/2000/svg" xml:space="preserve" width="215.9mm" height="355.6mm" version="1.1" style="shape-rendering:geometricPrecision; text-rendering:geometricPrecision; image-rendering:optimizeQuality; fill-rule:evenodd; clip-rule:evenodd"
viewBox="0 0 21590 35560"
 xmlns:xlink="http://www.w3.org/1999/xlink"
 xmlns:xodm="http://www.corel.com/coreldraw/odm/2003">
 <defs>
  <style type="text/css">
   <![CDATA[
    .str0 {stroke:#FEFEFE;stroke-width:20;stroke-miterlimit:22.9256}
    .str11 {stroke:#72ADEE;stroke-width:20;stroke-miterlimit:22.9256}
    .str8 {stroke:#BBD36C;stroke-width:20;stroke-miterlimit:22.9256}
    .str2 {stroke:#FEFEFE;stroke-width:7.62;stroke-miterlimit:22.9256}
    .str6 {stroke:#5A7757;stroke-width:7.62;stroke-miterlimit:22.9256}
    .str1 {stroke:#72ADEE;stroke-width:7.62;stroke-miterlimit:22.9256}
    .str3 {stroke:#769949;stroke-width:7.62;stroke-miterlimit:22.9256}
    .str7 {stroke:#927769;stroke-width:7.62;stroke-miterlimit:22.9256}
    .str10 {stroke:#B08B55;stroke-width:7.62;stroke-miterlimit:22.9256}
    .str5 {stroke:#BBD36C;stroke-width:7.62;stroke-miterlimit:22.9256}
    .str9 {stroke:#E17555;stroke-width:7.62;stroke-miterlimit:22.9256}
    .str4 {stroke:#F4D284;stroke-width:7.62;stroke-miterlimit:22.9256}
    .str12 {stroke:#E6E7E8;stroke-width:20;stroke-linecap:round;stroke-linejoin:round;stroke-miterlimit:22.9256}
    .fil2 {fill:none}
    .fil0 {fill:#FEFEFE}
    .fil6 {fill:#5A7757}
    .fil7 {fill:#72ADEE}
    .fil5 {fill:#769949}
    .fil1 {fill:#91BEF3}
    .fil8 {fill:#927769}
    .fil10 {fill:#B08B55}
    .fil4 {fill:#BBD36C}
    .fil9 {fill:#E17555}
    .fil3 {fill:#F4D284}
    .fil11 {fill:#927769;fill-rule:nonzero}
   ]]>
  </style>
 </defs>
 <g id="Capa_x0020_1">
  <metadata id="CorelCorpID_0Corel-Layer"/>
  <g id="_2785419328608">
   <path class="fil0 str0" d="M6633.13 5811.46l637.6 2.08 39.15 12.91 -174.5 133.27c-38.13,29.52 -108,48.58 -93.29,111.6l0.83 34.15 98.46 39.09 288.85 139.15 177.41 23.33c-64.46,64.62 -102.56,127.1 -71.1,220.26l-257.07 -146.97 -243.21 -230.72 -121.19 15.41 -505.18 400.21 10.62 -64.35c-8.49,-32.7 -14.28,-64.58 -34.01,-96.66l-31.58 -63.46 524.74 -222.4 22.49 -72.46 -36.84 -45.04c-105.44,-67.86 -173.39,-106.56 -232.18,-189.4z"/>
   <path class="fil1 str1" d="M6174.93 2941.36c-11.02,3.74 -5.48,2.19 -14.1,8.68 -1.07,0.8 -11.99,10.55 -12.71,11.36 -12.05,13.57 -10.26,8.7 -13.46,28.82l-145.69 231.09c-20.78,37.26 -44.55,85.82 -63.95,124 -90.21,177.5 -191.74,572.18 -170.13,778.82 193.5,-4.26 383.91,-4.05 576.92,-8.11 95.88,-2.02 188.38,-4.45 285.33,-5.26 87.72,-0.74 206.28,-7.35 289.8,-0.39 -7.14,-52.32 8.16,-415.37 1.02,-455.85 -4.13,-23.41 9.4,-13.45 -10.45,-16.47 -15.55,26.51 -55.08,71.2 -80.55,83.25 7.39,-99.82 9.64,-52.81 21.62,-117.6 -68.07,26.94 -176.61,191.21 -202.57,213.43 0.23,-62.81 22.83,-92.43 38.03,-146.21 -41.57,16.79 -61.26,59.38 -88.05,83.16 0.32,-43.16 18.74,-85.34 36.18,-118.71 17.73,-33.93 43.14,-57.77 57.12,-90.57 -37.92,16.49 -77.16,39.24 -112.11,60.38l-95.15 67.23c10.42,-67.68 94.9,-120.88 113.79,-162.19 -30.21,-0.8 -55.74,6.94 -76.19,18.45 -9.77,5.49 -17.84,9.88 -30.37,18.14l-25.12 15.22c15.5,-54.8 77.28,-89.2 109.11,-125.87l-51.56 -16.23c-20.88,-3.79 -42.08,-2.41 -63.02,-3.1 52.67,-57.21 238.51,-81.68 324.16,-86.54l-78.84 -61.75c-27.14,-18.26 -76.96,-34.81 -94.93,-50.92 54.21,-31.95 149.9,3.27 200.6,12.16 -13.85,-38.92 -54.51,-63.74 -76.54,-100.87 67.38,-11.66 120.52,43.46 148.99,74.09 4.98,-8.66 18.75,-68.31 23.61,-83.56 5.89,-18.51 17.48,-59.96 24.95,-75.14 12.84,18.61 23.19,63.87 30.69,87.92 4.87,15.63 9.69,29.65 15.39,44.91l17.69 38.42c0.41,-0.95 1.89,2.53 3.01,3.65l125.35 -143.27c15.36,-16.13 25.84,-32.13 53.52,-37.09 -4.59,55.87 -38.45,94.74 -50.52,146.47 44.68,-35.27 96.55,-89.05 168.84,-93.9 -70.98,101.58 -83.91,133.3 -139.52,234.76 63.62,1.43 113.55,0.16 170.14,18.63 24.74,8.08 105.36,44.93 112.91,67.08 -27.93,11.54 -160.08,-3.32 -203.77,-0.04 22.2,18.54 60.35,36.26 87.74,58.21 16.12,12.92 58.93,58.12 62.25,80.23 -33.65,-7.25 -60.73,-19.22 -93.59,-26.22 -26.08,-5.55 -69.33,-11.92 -95.47,-18.34 21.82,42.2 109.37,114.7 104.78,234.63l-105.59 -112.83c-32.61,-31.22 -86.26,-82.54 -131.27,-91.43 10.98,58.17 39.26,110.98 29.21,182.83 -27.01,-39.69 -48.33,-77.63 -79.02,-111.53 -21.23,-3.13 -3.83,-2.03 -11.23,4.82 0.53,86.71 -0.11,182.38 3.83,261.67 1.44,29.2 -4.43,203.69 9.87,225.57 26.19,17.53 101.04,6.05 139.37,5.25 138.64,-2.88 305.18,2.91 436.07,-3.95 71.64,-3.76 527.48,-7.35 576.68,1.06 3.89,-227.05 -56.97,-471.53 -140.03,-669.6l-88.44 -185.7c-109.87,-208.06 -276.17,-415.72 -484.86,-529.02l-35.06 -19.18c-13.18,-10.79 -1.81,1.83 -9.04,-9.79 -40.21,-2.86 -350.64,-171.21 -708.96,-64.58 -96.14,28.61 -215.41,78.7 -289.68,129.43 -45.57,31.14 -76.44,56.34 -117.22,89.22 -22.77,18.35 -84.12,90.66 -109.81,98.77z"/>
   <path class="fil0 str2" d="M7005.58 4403.48c0.1,24.06 7.89,18.51 36.15,27.63 14.45,4.67 24.8,8.01 39.85,16.84 26.09,10.29 25.57,14.74 46.69,26.45 27.73,1.18 281.41,-110.21 332.94,-128.26 120.9,-42.34 150.85,46.81 94.88,59.11 -25.54,5.61 -53.82,-10.95 -101.94,2.19 -25.96,7.09 -56.9,16.34 -79.02,31.14l13.51 34.59c43.8,-6.43 73.31,-30.44 121.38,-34.99 122.59,-11.6 120.44,92.89 34.3,74.49 -83.5,-17.83 -129.35,23.07 -218.86,39.92 17.34,12.72 105.6,11.25 129.75,12.39 40.21,1.89 31.03,8.99 60.71,12.23 29.68,3.23 36.65,-6.73 52.58,15.02l-144.45 20.82c-1.21,23.66 -1.88,29.82 19.74,34.99 32.23,7.71 252.58,-5.8 341.07,38.68 -14.97,19.8 -21.91,21.18 -34.94,45.24l37.48 9.4c-12.91,29.19 -13.6,-11.72 -41.05,45.93 -66.83,8.77 -59.36,1.62 -78.21,21.71 -7.8,8.31 -1.39,4.97 -12.92,12 -3.59,2.19 -24.47,9.3 -30.35,12.12 -5.93,18.32 3.92,-7.61 8.87,26.82 -38.23,0.3 -264.85,11.39 -280.56,21.04 15.19,11.41 21.28,11.42 45.41,12.99 1.98,28.52 8.71,76.61 19.88,95.33 23.54,3.5 35.9,0.48 55.09,6.88 48.04,16.01 97.37,-0.52 101.51,66.93 -36.91,31.45 -231.62,22.95 -296.28,25.93 9.5,19.72 0.93,3.28 25.25,16.92l-13.89 54.28c-19.34,9.05 -17.76,0.71 -36.17,12.14 8.56,51.62 29.48,6.53 28.21,58.01 -23.51,10.72 -47.57,-6.01 -35.05,31.06 8.46,25.05 21.28,5.06 42.92,26.27 -13.06,32.52 -37.28,15.64 -71.27,23.33 -31.07,7.02 -20.68,18.64 -68.54,13.52 -157.31,-16.84 -351.89,-1.8 -525.3,-8.53l2.74 -48.32 62.29 -1.67c11.94,-16.61 5.09,-30.89 31.32,-36.64 16.12,-3.53 44.24,-5.91 60.14,-8.82 -3.24,-20.88 -5.82,-16.17 -8.18,-39.65 -33.98,-6.68 -69.71,-6.78 -101.08,-14.36 -40.42,-9.77 -42.07,-39.13 -55.04,-55.24 -19.47,-0.99 -46.71,0.37 -64.64,-2.73 -6.5,-1.13 -15.86,-4.09 -20.67,-8.47l-11.82 -19.85c-56.11,-5.41 -81.75,-18.94 -139.58,-18.81 -37.63,0.08 -107.89,0.68 -134.14,-16.64l2.09 -30.26 46.43 -7.8c0.07,-31.28 9.3,-25.72 12.75,-59.02 -21.92,-12.28 -11.61,-1.47 -26.54,-21.98 -33.86,-46.51 -11.51,-55.72 -9.45,-62.21 8.84,-27.87 0.41,-30.81 -14.36,-34.17l-52.84 -1.57c-123.95,-0.75 -63.99,-2.21 -123.42,-16.95 -20.43,-5.07 -41.12,-2.24 -61.33,-7.08 -0.05,-25.35 -2.19,-34.77 21.39,-38.19 11.54,-16.29 -1.75,-5.19 18.03,-10.5l266.7 -6.15c195.99,-3.08 133.28,-19.24 189.45,-30.05 36.9,-7.1 29.51,0.88 49.24,-22.72l-299.98 -5.46c21.27,-11.14 37.95,-7.3 54.67,-16.15 -38.43,-19.45 -134.83,0.03 -186.05,-9.3 -45.69,-8.31 -41.06,-1.82 -63.08,-20.37 -1.33,-1.11 -5.27,-4.57 -6.62,-5.69 -30.24,-25.04 -8.59,1.19 -19.6,-26.39 -0.61,-1.52 -0.92,-3.31 -1.58,-4.83 -7.53,-17.56 -57.36,-46.86 46.59,-46.48 172.13,0.65 464.92,-18.54 598.76,-5.95 39.74,5.33 20.79,-5.33 46.95,-10.82 23.72,-4.97 10.63,4.5 52.06,-9.02 22.69,-7.41 42.29,20.5 60.33,20.81 192.87,20.42 138.56,-27.24 170.21,-48.24 -42.31,-24.64 -503.6,0.01 -585.29,-7.02 -187.16,-16.1 -80.5,-182.69 -15.85,-123.17 35.38,32.57 -4.39,57.19 -12.56,72.17l170.21 -2.84 327.12 -25.72 2.92 -59.15c4.9,-44.28 0.92,-102.23 0.14,-133.2 -0.73,-28.94 -1.8,-103.29 3.16,-119 -83.52,-6.96 -202.08,-0.35 -289.8,0.39 -96.95,0.81 -189.45,3.24 -285.33,5.26 -193.01,4.06 -391.72,5.2 -585.22,9.46 9.19,374.14 87.43,613.36 264.06,918.4 11.07,19.11 69.94,112.85 77.22,116.21 23.94,11.08 -5.39,-24.35 15.78,-1.88 6.48,6.88 10.52,23.28 16.11,31.85 16.38,25.13 41.33,19.67 65.65,36.27l16.94 -34.47c30.43,48.08 -3.99,41.25 54.85,67.38 22.47,9.98 40.4,46.51 53.61,73.27 13.06,-10.3 0.7,2.45 10.82,-11.41 2.59,-3.56 5.31,-8.29 7.4,-12.18 12.5,-23.21 17.95,-46.64 49.38,-63.07 -7.44,64.15 -11.06,130.94 38.39,163.79 21.89,-8.72 21.8,-20 34.73,-35.2 5.37,36.7 9.3,71.33 32.05,89.69l32.69 -26.74c16.73,64.69 144.88,144.98 200.61,71.8l21.67 -29.55 12.11 20.73c5.69,9.81 7.02,13.05 14.78,21.43 14.53,15.69 24.52,20.12 45.96,20.5l10.17 -40.88c23.37,24.06 17.03,31.81 44.46,53.47 6.94,-14.32 0.9,-5.34 5.11,-18.3l7.04 -18.03c15.98,22.05 37.04,36.72 66.77,43.38 33.22,-48.98 12.04,-63.07 71.47,-109.27l-5.6 51.54c32.64,4.03 80.66,-29.1 107.72,-37.28 60.77,-18.35 50.35,-11.78 85.61,-63.73l1.19 58.64c55.45,3.83 46.17,-26.6 85.41,-52.96 44.38,-29.82 33.27,-41.99 67.01,-71.57 12.31,22.99 -0.48,52.25 41.49,49 82.66,-6.4 135.47,-111.41 152.77,-128.61 24.26,10.45 6.77,21.14 48.57,25.42 18.91,-12.14 21.73,-23.38 35.68,-38.58 14.26,-15.52 23.12,-16.19 41.58,-30.78 29.71,-23.47 23.33,-70.68 38.08,-105.94 33.22,2.99 22.4,33.48 65.98,9.3 87.47,-48.54 60.6,52.91 154.34,-124.52 132.89,-251.52 240.64,-588.74 221.78,-890.79 -49.2,-8.41 -505.04,-4.82 -576.68,-1.06 -130.89,6.86 -297.43,1.07 -436.07,3.95 -38.33,0.8 -113.18,12.28 -139.37,-5.25 -6.98,24.05 -4.97,118.27 -4.82,143.14 0.22,37.77 1.47,98.86 4.49,160.89z"/>
   <path class="fil2 str3" d="M7284.37 2533.54l-132.58 64.87c22.13,11.63 213.42,53.42 248.81,90.11 39.28,6.93 146.37,81.6 176,103.54 57.84,42.85 99.51,87.76 147.12,138.39 60.36,64.2 190.22,259.08 229.51,341.34 146.11,305.92 216.16,530.76 211.47,929.34 -3.71,315.4 -122.94,645.52 -261.47,873.45 -73.93,121.65 -156.82,234.82 -249.96,320.41 -74.01,68.02 -226.18,172.97 -358.11,211.74 -2.76,14.66 10.66,56.32 14,81.62 -119.91,-7.89 -225.26,32.84 -340.05,32.15 -72.09,-0.43 -275.04,-48.93 -331.77,-27.11l10.67 -83.7c-122.17,-35.26 -243.45,-104.08 -319.82,-166.65 -56.77,-46.52 -85.98,-69.19 -126.13,-116.51 -195.36,-230.25 -339.27,-482.85 -410.99,-809.27 -92.51,-420.99 -40.61,-847.7 153.02,-1225.75 31.59,-61.69 142.76,-252.59 190.57,-301.29 3.2,-20.12 1.41,-15.25 13.46,-28.82 0.72,-0.81 11.64,-10.56 12.71,-11.36 8.62,-6.49 3.08,-4.94 14.1,-8.68 45.4,-70.69 168.93,-165.98 257.65,-218.2 95.93,-56.46 227.44,-108.55 349.58,-125.65 -5.13,-9.98 -7.3,-10.27 -30.2,-18.86 -47.93,-18 -26.95,-15.32 -57.95,-32.51 -14.61,-8.11 -12.21,-6.17 -26.5,-16.15 -53.77,-37.56 -72.13,-17.23 -115.42,15.61 -51.92,39.39 -14.13,57.09 -125.82,118.16 -1.18,0.64 -2.65,1.58 -3.81,2.22l-69.56 37.01c1.58,-19.01 0.66,-21.83 10.98,-35.71 16.32,-21.93 16.84,-5.54 35.5,-31.21 29.09,-40 110.81,-108.24 79.45,-127.35 -38.92,20.19 -79.17,62.22 -122.88,95.56 -114.48,87.3 -257.31,14.14 -311.68,113.25 -12.14,22.12 -66.69,125.98 -68.72,139.86l35.77 2.06c-53.25,71.72 -82.76,126.76 -153.56,175.36 -44.14,30.3 -142.32,86.06 -167.57,149.84 31.35,-2.43 34.12,-21.05 69.67,-20.05l-16.99 46.71c18.04,-10.71 44.57,-28.94 67.29,-35.97 -14.85,72.49 -67.21,144.09 -121.77,188.12 -107.95,87.14 -76.27,40.27 -135.46,162.68l47.98 -38.37 -7.68 93.6c16.85,-9.2 40.78,-53.83 65.13,-73.34 6.91,246.93 -100.43,260.86 -127.57,328.77l17.55 6.1 0.08 70.4c15.48,-21.7 20.62,-38.39 47.93,-46.96 -19.32,94.96 10.61,226.9 -54.06,310.27 -23.3,30.03 -45.63,31.55 -38.22,81.56l13.27 -42.21c0.34,1.01 2.03,1.31 2.57,4.02 0.53,2.65 2.62,3.21 3.3,4.36 20.37,34.37 8.27,55.2 25.49,85.38 22,-31.61 25.62,-99.92 53.64,-137.47 11.91,60.87 16.38,194.51 12.94,259.71 -4.04,76.62 -60.96,147.27 -14.33,214.62l9.39 -110.93c10.75,14.97 11.26,25.23 19.3,45.21 7.5,18.61 15.83,32.42 24.14,50.22 8.87,-25.81 12.73,-61.45 28.47,-81.15l46.77 178.72c5.27,36.19 16.62,63.45 22.64,100.65 6.92,42.71 3.93,87.6 5.06,130.59 1.53,58.1 36.74,154.53 70.62,188.58l-0.99 -92.15c22.46,12.65 34.09,54.35 62.3,73.47 5.2,-12.98 4.39,-19.5 7.61,-34.55l12.09 -33.83c9.6,43.59 11.37,64.97 28.43,105.24 45.05,106.33 51.04,101.83 51.14,218.45 0.02,22.21 0.61,36.43 11.14,53.35 8.58,13.8 20.23,16.75 31.6,29.13l1.38 -126.93c22.18,19.14 51.36,73.35 92.22,104.05l-7.06 -61.05c58.07,31.56 138.63,163.82 164.28,221.48 16.42,36.91 39.29,98.79 65.76,128.78 21.41,24.25 81.28,79.23 107.24,90.18 -21.07,-99.83 -105.54,-205.2 -124.8,-252.28 35.91,17.8 106.04,77.55 140.46,105.76 136.79,112.14 104.31,215.82 215.9,269.47 64.28,30.9 108.68,49 179.71,70.86 12.21,2.08 14.67,8.08 6.34,-15.04 -31.01,-15.72 -58.08,-28.2 -86.32,-41.05 -78.14,-35.54 -218.62,-99.31 -168.63,-198l59.5 -5.29c81.96,-10.5 172.08,30.8 256.14,28.68 94.75,-2.38 166.12,-17.34 254.5,-28.32 53.36,-0.1 71.38,-17.16 137.54,-1.84 32.28,82.78 13.81,103.44 -113.64,173.03l-28.87 21.5c43.09,-9.22 108.06,-52.99 147.55,-78.4 72.63,-46.71 30.27,-48.26 87.57,-142.98 95.35,-157.61 85.37,-107.95 165.5,-180.78 24.49,-22.26 35.27,-36.7 67.7,-50.22 -10.34,44.59 -96.64,160.59 -109.31,242.79 42.89,-33.84 73.09,-43.75 93.97,-97.31 58.73,-150.65 93.45,-235.72 230.44,-355.48l-25.84 85.48c37.56,-14.94 28.43,-31.54 51.64,-41.78 5.42,-12.88 1.28,-9.16 12.59,-19.92 15.98,29.58 -8.51,86.13 -12.95,117.44 82.34,-31.37 79.13,-181.59 84.04,-227.78 8.97,-84.37 58.85,-151.31 92.82,-225.29 12.96,20.5 -6.68,42.91 6.07,74.77 11.79,-15.47 17.3,-41.22 36.24,-67.45l20.78 -20.82 -0.96 105.3c23.57,-28.19 47.11,-80.19 63.06,-123.32 21.63,-58.46 4.47,-113.49 -2.35,-169.09 -11.96,-97.65 31.46,-195.29 42.81,-338.35 24.66,9.64 33.41,50.34 46.82,69.14 19.26,-12.02 13.84,-12.63 29.36,-34.5l32.28 -38.04 7.51 84.78c-4.44,-33.41 26.4,-43.66 -2.23,-107.43 -13.81,-30.75 -41.84,-57.36 -48.65,-90.65 -12.13,-59.29 16.72,-189.23 17.95,-260.36 22.24,23.9 26.48,76.39 48.77,102.7 51.72,-89.91 -10.25,-121.01 -17.92,-176 -5.19,-37.13 2.23,-75.81 -2.02,-114.27 -4.09,-37.08 -14.45,-59.99 -9.52,-102.74 19.3,28.67 37.89,70.94 57.05,94.99 2.42,-19.75 5.56,-39.92 6,-59.69 0.63,-28.44 -5.76,-36.67 -6.59,-58.24l31.2 37.56c4.14,-12.98 4.84,-17.01 -5.22,-27.75 -10.85,-25.34 -20.84,-24.63 -41.13,-36.15 -95.81,-54.42 -75.41,-100.3 -114.61,-225.9 -13.86,-44.39 -33.93,-76.77 -37.25,-97.6l68.1 27.57 -1.44 -91.79c-114.99,-4.78 -168.62,-138.13 -205.59,-224.71 38.68,4.17 52.52,8.28 81.74,21.33l-10.78 -48.61c25.75,11 30.22,23.7 59.08,34.02 -8.62,-38.55 -46.37,-88.49 -74.57,-99.73 -54.54,-21.73 -67.36,-21.29 -118.83,-51.01 -63.61,-36.72 -129.47,-114.98 -155.81,-182.92l67.53 22.52c-9.7,-28.69 -21.72,-43.86 -30.73,-73.39 -13.45,-44.04 -5.8,-33.23 -39.01,-57.65 -54.28,-39.9 -56.56,-48.37 -143.23,-50.85 -55.22,-1.58 -182.35,-34.11 -225.24,-66.39 -21,-15.8 -27.43,-31.29 -54.42,-42.66 7.78,-11.25 -0.59,-6.19 14.2,-9.43 10.47,-9.71 36.82,-9.48 38.66,-13.44 1.04,-2.22 3.74,-0.97 5.36,-1.95 -12.78,-20.58 5.9,-7.26 -26.9,-15.23 -30.14,-7.33 -59.95,-16.53 -93.52,-16.83 8.08,40.21 31.06,72.26 55.14,94.35 69.9,64.12 68.06,37.71 91.44,35.72 16.87,33.75 -17.55,10.05 27.6,57.65 13.66,14.38 25.14,33.74 31.64,54.61 -15.65,-2.45 -47.06,-30.44 -73.95,-41.68 -27.83,-11.63 -59.26,-14.79 -88.13,-27.18 -83.84,-35.99 -91.67,-91.53 -139.45,-97.01z"/>
   <path class="fil3 str4" d="M6210.97 2459.6c-0.59,37.77 -17.38,29.86 -22.4,64.06 31.32,0.51 11.5,7.18 48.56,-32.4 20.2,-21.57 15.74,-30.78 41.11,-49.35 65.79,-48.17 55.55,-60.64 107.3,-72.18 -6.42,8.26 -22.2,32.49 -30.78,45.55 -12.52,19.07 -20.55,36.3 -25.6,60.71 38.57,-13.73 57.34,-45.81 87.98,-77.14 96.21,-98.41 234.34,-113.51 374.06,-112.74 -16.88,45.11 -46.38,55.52 -82.39,81.65 -80.68,58.56 -143.46,54.54 -241.28,81.45 -49.03,13.49 -77.3,35.49 -117.65,47.43l25.01 7.82c-58.02,6.63 -91.74,27.66 -135.62,33.24l-2.65 39.74 188.06 -63.64c32.92,-16.26 24.8,-18.36 71.08,-16.67l-16.93 11.59c31.36,19.11 -50.36,87.35 -79.45,127.35 -18.66,25.67 -19.18,9.28 -35.5,31.21 -10.32,13.88 -9.4,16.7 -10.98,35.71l69.56 -37.01c1.16,-0.64 2.63,-1.58 3.81,-2.22 111.69,-61.07 73.9,-78.77 125.82,-118.16 43.29,-32.84 61.65,-53.17 115.42,-15.61 14.29,9.98 11.89,8.04 26.5,16.15 31,17.19 10.02,14.51 57.95,32.51 22.9,8.59 25.07,8.88 30.2,18.86 50.86,-13.18 102.33,-15.06 156.72,-14.96 56.31,0.1 121.22,9.73 171.64,8.21 0.8,-32 25.4,-61.01 39.85,-78.39 18.7,-22.52 42.6,-33.19 59.78,-50.22 8.63,-8.55 3.47,-3.07 10.92,-12.21l-219.6 13.45c15.94,-21.71 105.78,-69.6 138.37,-83.28 54.93,-23.06 128.1,-40.58 193.21,-31.54 -21.66,-29.47 -58.55,-48.1 -78.19,-78.45 107.65,-6.12 247.91,67.33 322.22,133.38 32.34,28.75 34.71,55.55 74.87,79.98l-54.95 -157.3c19.78,5.19 1.87,-2.8 16.18,10.66 0.13,0.13 12.86,13.66 14.69,15.12 23.98,19.08 -16.29,-8.46 5.91,3.98l27.68 13.81c14.27,-13.46 26.22,-10.12 53.39,-11.37 -51.88,-43.52 -158.38,-35.65 -214.9,-78.46 -22.33,-16.92 6.81,-1.03 -31.13,-17.07 -19.9,-8.42 -17.4,-6.83 -26.09,-27.82 68.15,-19.69 226.08,-11.39 294.16,-21.84 -38.75,-4.55 -80.28,-19.57 -118.79,-27.28 -38.43,-7.69 -8.06,-3.41 -34.59,-13.13 -31.75,-11.64 -83.99,-16.96 -118.88,-26 -25.45,-6.59 -22.27,-3.32 -29.16,-23.1 27.65,-11.15 128.28,-14.24 170.48,-24.77l137.1 -52.93c-48.03,-48.35 -179.81,33.5 -304.12,-8.89 9.59,-23.68 17.4,-25.38 46.15,-40.71 21.06,-11.22 35.59,-15 58.68,-26.05 15.06,-7.21 9.94,-6.95 25.7,-16.46 11.74,-7.07 19.8,-8.89 30.66,-12.81 20.77,-7.51 46.38,-13.92 56.31,-28.64l-9.4 -4.09c-8.08,-1.69 0.42,-2.31 -15.11,-2.06 -65.03,1.03 -145.8,23.3 -231.72,25.51 1.72,-23.35 -1.13,-23.37 15.96,-33.26 75.91,-43.91 87.27,-34.23 159.71,-102.14 19.87,-18.64 38.62,-36.58 44.93,-68.22 -56.7,0.68 -80.75,57.13 -125.14,73.99 -51.69,19.64 -103.69,23.77 -153,39.83 -3.28,-32.11 14.79,-39.08 29.2,-55.14l94.83 -111.72c13.98,-13.84 27,-18.79 29.02,-41.51 -14.13,5.03 -39.15,22.99 -56.86,32.52l-115.55 66.78c-25.54,13.92 -26.82,28.93 -59.85,25.4 -0.38,-36.47 44.41,-57.66 61.69,-85.91 31.08,-50.81 78.22,-108.99 74.66,-181.75 -16.56,13.49 -37.8,29.76 -48.58,50.48 -15.79,30.37 -37.79,70.74 -66.09,92.72 -12.96,10.08 -18.94,15.71 -30.11,24.23 -11.59,8.84 -19.84,16.47 -31.29,23.28 -3.38,2.01 -12.15,6.67 -16.74,7.82 -45.4,11.31 -7.42,-72.3 4.8,-110.29 11.79,-36.67 32.96,-77.57 36.94,-116.04 -22.47,9.49 -32.79,32 -45.18,52l-12.42 18.94c-21.17,36.49 -46.96,62.35 -71.59,97.47 -16,22.82 -1.68,16.78 -28.89,20.46 -27.84,-46.19 15.5,-91.96 17.93,-133.59 1.84,-31.26 3.64,-138.51 -5.79,-158.27 -45.82,33.09 -22.9,126.22 -79.64,212.2 -27.69,41.96 -44.81,86.75 -58.9,36.23 -2.7,-9.66 -4.58,-28.07 -5.68,-37.03 -4.63,-37.96 -23.06,-212.52 -31.83,-228.46 -8.34,11.1 -21.05,123.29 -25.49,149.25 -9.7,56.68 -1.83,112.69 -29.14,149.98 -16.02,-5.56 -20.36,-15.04 -27.39,-31.19 -17.76,-40.77 -40.43,-34.25 -57.49,-104.81 -7.69,-31.82 -7.02,-61.4 -19.03,-91.48l-35.72 -70.5c-4.9,8.15 -0.47,144.43 3.2,173.3 8.01,62.89 27.78,32.93 27.45,165.04 -31.98,-5.45 -26.82,-20.55 -49.82,-48.53l-19.68 -28.94c-2.14,-3.43 -7.51,-11.44 -9.7,-14.27 -0.76,-0.98 -1.98,-2.29 -2.76,-3.27 -23.49,-29.3 -70.37,-114.31 -96.83,-125.92 0.57,47.83 25.62,83.67 37.41,124.7 13.85,48.24 35.66,94.5 32.54,132.13 -20.56,-2.65 -122.87,-62.29 -141.74,-84.12 -25.42,-29.44 -58.39,-113.71 -100.93,-122.4 6.88,34.04 46.41,113.52 66.31,145.84 29.08,47.22 79.88,65.93 92.2,122.39 -47.95,-0.26 -32.2,-0.89 -65.12,-16.22l-144.13 -68.14c-23.73,-13.8 5.51,-7.98 -31.15,-14.32 8.79,27.5 2.47,9.16 18.91,26.2l107.37 104.94c20.6,16.08 32.82,28.56 37.2,55.28 -35.28,-1.55 -141.63,-17.49 -173.58,-34.03 -18.69,-9.67 -42.26,-22.81 -63.05,-34.29 -36.19,-19.99 -25.3,-22.8 -79.71,-16.58 22.61,8.54 34.09,21.7 54.3,35.77 66.1,46.03 81.2,74.12 167.42,99.46 22.09,6.49 49.71,8.75 60.88,30.74 24.41,48.01 -117.56,14.55 -139.12,12l-82.85 -13.29c-11.23,-3.75 -26.32,-11.53 -48.17,-4.74 6.53,18.99 -1.98,4 23.68,14.64 13.13,5.44 19.7,9.55 29.92,12.92 52.1,17.16 74.02,38.09 124.2,55.03l28.79 12.36c13.7,7.47 16.24,5.4 19.13,26.46 -113.35,64.34 -261.23,-19.72 -337.12,30.35 14.13,10.13 56.75,16.28 78.53,22.31 28.15,7.79 47.37,17.19 78.69,26.97 51.55,16.08 150.89,-5.41 192.83,11.43l2.03 24.25c-52.99,29.5 -221.94,49.08 -288.84,78.95 25.48,14.28 242.99,0.07 299.47,8.46 -7.5,31 -67.4,51.17 -95.81,64.89 -45.35,21.9 -70.51,38.08 -125.39,49.91 -33.56,7.23 -66.36,10.65 -75.69,40.65 26.88,12.14 85.17,-16.21 114.74,-5.18 -8.97,13.64 -37.83,26.5 -47.52,42.42z"/>
   <path class="fil4 str5" d="M7187.33 4594.53c-25.37,5.01 -41.58,8.28 -59.15,22.88l-77.05 100.35c-20.44,-16.73 -23.93,-7.89 -49.18,-0.49 16.06,19.55 5.73,12.41 33.76,14.51 16.16,1.22 18.95,-1.74 36.73,-1.82l-0.86 -10.44c0.09,-0.94 -0.03,-2.93 0.19,-3.92 3.83,-17.3 -13.75,-9.5 18.7,-18.62 39.77,-11.18 -3.83,13.97 53.45,-16.3 -5.61,36.03 -13.29,30.6 -8.66,26.94 6.95,6.09 -11.65,5.88 16.09,6.31 9.6,-14.51 11.22,-49.9 53.82,-13.86 21.45,18.14 -3.16,10.53 30.21,21.39 20.22,6.59 138.39,3.3 188.55,13.78l14.84 4.76c-54.28,2.67 -65.51,14.41 -123.47,14.59l-738.85 1.6c-36.78,2.66 -82.98,13.46 -86.95,-10.11 -38.38,18.07 -378.23,19.04 -448.49,19.53 -23.58,3.42 -21.44,12.84 -21.39,38.19 20.21,4.84 40.9,2.01 61.33,7.08 59.43,14.74 -0.53,16.2 123.42,16.95l52.84 1.57c14.77,3.36 23.2,6.3 14.36,34.17 -2.06,6.49 -24.41,15.7 9.45,62.21 14.93,20.51 4.62,9.7 26.54,21.98 -3.45,33.3 -12.68,27.74 -12.75,59.02l-46.43 7.8 -2.09 30.26c26.25,17.32 96.51,16.72 134.14,16.64 57.83,-0.13 83.47,13.4 139.58,18.81l11.82 19.85c4.81,4.38 14.17,7.34 20.67,8.47 17.93,3.1 45.17,1.74 64.64,2.73 12.97,16.11 14.62,45.47 55.04,55.24 31.37,7.58 67.1,7.68 101.08,14.36 2.36,23.48 4.94,18.77 8.18,39.65 -15.9,2.91 -44.02,5.29 -60.14,8.82 -26.23,5.75 -19.38,20.03 -31.32,36.64l-62.29 1.67 -2.74 48.32c173.41,6.73 367.99,-8.31 525.3,8.53 47.86,5.12 37.47,-6.5 68.54,-13.52 33.99,-7.69 58.21,9.19 71.27,-23.33 -21.64,-21.21 -34.46,-1.22 -42.92,-26.27 -12.52,-37.07 11.54,-20.34 35.05,-31.06 1.27,-51.48 -19.65,-6.39 -28.21,-58.01 18.41,-11.43 16.83,-3.09 36.17,-12.14l13.89 -54.28c-24.32,-13.64 -15.75,2.8 -25.25,-16.92 64.66,-2.98 259.37,5.52 296.28,-25.93 -4.14,-67.45 -53.47,-50.92 -101.51,-66.93 -19.19,-6.4 -31.55,-3.38 -55.09,-6.88 -11.17,-18.72 -17.9,-66.81 -19.88,-95.33 -24.13,-1.57 -30.22,-1.58 -45.41,-12.99 15.71,-9.65 242.33,-20.74 280.56,-21.04 -4.95,-34.43 -14.8,-8.5 -8.87,-26.82 5.88,-2.82 26.76,-9.93 30.35,-12.12 11.53,-7.03 5.12,-3.69 12.92,-12 18.85,-20.09 11.38,-12.94 78.21,-21.71 27.45,-57.65 28.14,-16.74 41.05,-45.93l-37.48 -9.4c13.03,-24.06 19.97,-25.44 34.94,-45.24 -88.49,-44.48 -308.84,-30.97 -341.07,-38.68 -21.62,-5.17 -20.95,-11.33 -19.74,-34.99l144.45 -20.82c-15.93,-21.75 -22.9,-11.79 -52.58,-15.02 -29.68,-3.24 -20.5,-10.34 -60.71,-12.23 -24.15,-1.14 -108.25,-4.25 -125.59,-16.97l-142.29 46.52z"/>
   <path class="fil5 str3" d="M6782.16 2597.51c-122.14,17.1 -253.65,69.19 -349.58,125.65 -88.72,52.22 -212.25,147.51 -257.65,218.2 25.69,-8.11 87.04,-80.42 109.81,-98.77 40.78,-32.88 71.65,-58.08 117.22,-89.22 74.27,-50.73 193.54,-100.82 289.68,-129.43 358.32,-106.63 668.75,61.72 708.96,64.58 -35.39,-36.69 -226.68,-78.48 -248.81,-90.11l132.58 -64.87c28.69,-32.48 66.67,-44.58 123.81,-120.75 12.72,4.65 50.5,31.71 108.18,52.26 19.15,6.83 39.38,11.94 60.83,18.4 31.92,9.62 41.35,4.92 55.48,26.9 -63.53,-6.84 -115.08,-3.45 -176.19,-5.82 -14.79,3.24 -6.42,-1.82 -14.2,9.43 26.99,11.37 33.42,26.86 54.42,42.66 42.89,32.28 170.02,64.81 225.24,66.39 86.67,2.48 88.95,10.95 143.23,50.85 33.21,24.42 25.56,13.61 39.01,57.65 9.01,29.53 21.03,44.7 30.73,73.39l-67.53 -22.52c26.34,67.94 92.2,146.2 155.81,182.92 51.47,29.72 64.29,29.28 118.83,51.01 28.2,11.24 65.95,61.18 74.57,99.73 -28.86,-10.32 -33.33,-23.02 -59.08,-34.02l10.78 48.61c-29.22,-13.05 -43.06,-17.16 -81.74,-21.33 36.97,86.58 90.6,219.93 205.59,224.71l1.44 91.79 -68.1 -27.57c3.32,20.83 23.39,53.21 37.25,97.6 39.2,125.6 18.8,171.48 114.61,225.9 20.29,11.52 30.28,10.81 41.13,36.15l25.94 -30.36c22.02,10.77 3.99,-12.33 13.76,12.15 17.39,-56.83 76.93,-65.12 69.54,-169.69 -5.49,-77.6 -19.58,-143.06 -23.92,-219.72l-21.59 43.55 -32.54 -66.14c-28.15,11.46 -39.27,54.79 -59.89,77.9 -14.96,-16.41 -50.11,-74.39 -42.21,-95.89 11.52,-31.41 30.33,-56.03 33.2,-117.54 2.72,-58.52 -57.88,-173.91 -88.12,-215.05 -26.5,30.76 -12.3,104.98 -30.35,138.77 -68.87,-53.65 -77.54,-204.91 -87.47,-235.95 -15.3,-47.88 -91,-180.47 -123.53,-196.61l-1.88 51.15c-34.84,-12.43 -54.73,-48.4 -121.73,-86.47 -8.04,-4.57 -11.72,-6.79 -22.11,-14.03 -14.04,-9.78 -8.94,-3.63 -19.71,-16.79 -12.76,17.18 -2.12,17.41 -21.13,26.1 -19.32,-22.13 -39.37,-27.13 -55.25,-59.39 -14.7,-29.84 -24.81,-54.62 -40.15,-81.73 -53.99,-95.48 -92.66,-103.9 -107.87,-132.39l-27.68 -13.81c-22.2,-12.44 18.07,15.1 -5.91,-3.98 -1.83,-1.46 -14.56,-14.99 -14.69,-15.12 -14.31,-13.46 3.6,-5.47 -16.18,-10.66l54.95 157.3c-40.16,-24.43 -42.53,-51.23 -74.87,-79.98 -74.31,-66.05 -214.57,-139.5 -322.22,-133.38 19.64,30.35 56.53,48.98 78.19,78.45 -65.11,-9.04 -138.28,8.48 -193.21,31.54 -32.59,13.68 -122.43,61.57 -138.37,83.28l219.6 -13.45c-7.45,9.14 -2.29,3.66 -10.92,12.21 -17.18,17.03 -41.08,27.7 -59.78,50.22 -14.45,17.38 -39.05,46.39 -39.85,78.39 -50.42,1.52 -115.33,-8.11 -171.64,-8.21 -54.39,-0.1 -105.86,1.78 -156.72,14.96z"/>
   <path class="fil6 str6" d="M8418.47 3757.88c10.06,10.74 9.36,14.77 5.22,27.75l-31.2 -37.56c0.83,21.57 7.22,29.8 6.59,58.24 -0.44,19.77 -3.58,39.94 -6,59.69 -19.16,-24.05 -37.75,-66.32 -57.05,-94.99 -4.93,42.75 5.43,65.66 9.52,102.74 4.25,38.46 -3.17,77.14 2.02,114.27 7.67,54.99 69.64,86.09 17.92,176 -22.29,-26.31 -26.53,-78.8 -48.77,-102.7 -1.23,71.13 -30.08,201.07 -17.95,260.36 6.81,33.29 34.84,59.9 48.65,90.65 28.63,63.77 -2.21,74.02 2.23,107.43l-7.51 -84.78 -32.28 38.04c-15.52,21.87 -10.1,22.48 -29.36,34.5 -13.41,-18.8 -22.16,-59.5 -46.82,-69.14 -11.35,143.06 -54.77,240.7 -42.81,338.35 6.82,55.6 23.98,110.63 2.35,169.09 -15.95,43.13 -39.49,95.13 -63.06,123.32l0.96 -105.3 -20.78 20.82c-18.94,26.23 -24.45,51.98 -36.24,67.45 -12.75,-31.86 6.89,-54.27 -6.07,-74.77 -33.97,73.98 -83.85,140.92 -92.82,225.29 -4.91,46.19 -1.7,196.41 -84.04,227.78 4.44,-31.31 28.93,-87.86 12.95,-117.44 -11.31,10.76 -7.17,7.04 -12.59,19.92 16.46,4.44 12.56,-0.97 12.56,15.51 -15.91,3.07 -7.84,-2.12 -20.64,15.71l-6.58 14.47c-0.12,0.28 -0.69,1.55 -0.81,1.81l-9.32 33.15c-11.39,18.99 -4.3,-10.39 -22.87,41.83 -10.11,28.43 -10.2,37.13 -0.49,63 39.33,-32.54 28.78,-18.33 30.35,-42.49 18.64,10.39 7.91,0.71 36.43,0.03 -1.16,56.44 -22.51,28.42 -42.47,66.75l58.51 -18.26c17.85,-10.51 8.74,4.22 14.31,-18.17 22.71,6.4 30.44,13.62 60.71,-9.75l-40.04 1.43c8.41,-35.76 41.93,-60.48 58.06,-89.43l-64.39 19.42c22.94,-39.29 70.7,-62.12 115.78,-82.65 33.74,-15.35 108.91,-45.29 133.55,-67.17 35.55,-31.57 112.33,-211.37 131.35,-276.66 -39.85,19.79 -66.42,65.25 -109.41,85.37 -1.15,-29.5 7.76,-55.19 12.2,-78.02l-36.34 27.7c5.2,-47.45 49.3,-111.73 75.06,-140.5 41.3,-46.14 77.98,-39.96 112.48,-106.01 13.61,-26.07 19.84,-47.47 34.14,-70.04 18.47,-29.18 26.26,-39.7 39.44,-69 21.56,-47.93 44.03,-114.78 47.87,-172.91 -17.89,11.93 -33.91,36.93 -45.6,56.27 -4.62,-38.83 5.77,-44.44 0.26,-74.92 -14.71,18.28 -44.94,42.89 -63.69,52.37 9.29,-64.71 96.7,-85.56 131.56,-155.54 26.8,-53.79 34.12,-172.37 38.79,-247.12 -31.36,18.59 -39.93,65.82 -64.65,79.64 -20.24,-227.17 96.43,1.75 88.54,-431.38 -13.22,17.76 -21.14,30.23 -36.43,49.99 -7.85,-6.04 -1.32,3.92 -12.09,-13.22 -4.06,-6.44 -5.66,-11.77 -8.67,-20.97l-43.22 72.93c-4.42,5.65 -5.47,6.51 -8.87,9.91 -15.75,-20.4 -32.24,-86.64 -28.73,-116.3 -9.77,-24.48 8.26,-1.38 -13.76,-12.15l-25.94 30.36z"/>
   <path class="fil6 str6" d="M6897.51 3638.05l20.04 -29.97c7.33,-14.27 7.55,-28.47 45.61,-41.93l40.28 41.24c30.69,33.9 52.01,71.84 79.02,111.53 10.05,-71.85 -18.23,-124.66 -29.21,-182.83 45.01,8.89 98.66,60.21 131.27,91.43l105.59 112.83c4.59,-119.93 -82.96,-192.43 -104.78,-234.63 26.14,6.42 69.39,12.79 95.47,18.34 32.86,7 59.94,18.97 93.59,26.22 -3.32,-22.11 -46.13,-67.31 -62.25,-80.23 -27.39,-21.95 -65.54,-39.67 -87.74,-58.21 43.69,-3.28 175.84,11.58 203.77,0.04 -7.55,-22.15 -88.17,-59 -112.91,-67.08 -56.59,-18.47 -106.52,-17.2 -170.14,-18.63 55.61,-101.46 68.54,-133.18 139.52,-234.76 -72.29,4.85 -124.16,58.63 -168.84,93.9 12.07,-51.73 45.93,-90.6 50.52,-146.47 -27.68,4.96 -38.16,20.96 -53.52,37.09l-125.35 143.27c-1.12,-1.12 -2.6,-4.6 -3.01,-3.65l-17.69 -38.42c-5.7,-15.26 -10.52,-29.28 -15.39,-44.91 -7.5,-24.05 -17.85,-69.31 -30.69,-87.92 -7.47,15.18 -19.06,56.63 -24.95,75.14 -4.86,15.25 -18.63,74.9 -23.61,83.56 -28.47,-30.63 -81.61,-85.75 -148.99,-74.09 22.03,37.13 62.69,61.95 76.54,100.87 -50.7,-8.89 -146.39,-44.11 -200.6,-12.16 17.97,16.11 67.79,32.66 94.93,50.92l78.84 61.75c-85.65,4.86 -271.49,29.33 -324.16,86.54 20.94,0.69 42.14,-0.69 63.02,3.1l51.56 16.23c-31.83,36.67 -93.61,71.07 -109.11,125.87l25.12 -15.22c12.53,-8.26 20.6,-12.65 30.37,-18.14 20.45,-11.51 45.98,-19.25 76.19,-18.45 -18.89,41.31 -103.37,94.51 -113.79,162.19l95.15 -67.23c34.95,-21.14 74.19,-43.89 112.11,-60.38 -13.98,32.8 -39.39,56.64 -57.12,90.57 -17.44,33.37 -35.86,75.55 -36.18,118.71 26.79,-23.78 46.48,-66.37 88.05,-83.16 -15.2,53.78 -37.8,83.4 -38.03,146.21 25.96,-22.22 134.5,-186.49 202.57,-213.43 -11.98,64.79 -14.23,17.78 -21.62,117.6 25.47,-12.05 65,-56.74 80.55,-83.25z"/>
   <path class="fil5 str3" d="M6210.97 2459.6c-56.76,23.63 -126.33,180 -199.34,243.85l-150.65 116.25 1.68 -96.08c-23.23,16.44 -122.45,168.56 -136.87,203.45 -37.61,91.02 -25,172.35 -79.96,258.75 -20.43,-25.04 -31.47,-98.89 -41.64,-132.31 -26.49,21.77 -67.53,155.41 -78.22,195.81 -25.02,94.48 2.63,177.06 -16.63,264.45 -8.34,-16.4 -57.37,-116.65 -67.68,-123.27 -12.69,23.45 -9.28,76.44 -12.27,109.6 -14.32,-7.21 -28.18,-49.03 -38.05,-63.98 -7.14,68.85 -25.12,209.45 -13.89,276.31 4.34,25.83 28.43,82.21 39.95,103.82 28.5,53.44 19.8,62.74 29.78,123.73 9.03,32.52 -1.37,36.93 16.5,78.94 0,-74.92 -1.12,-7.09 27.62,-103.24l17.33 -42.28c6.77,-13.57 14.89,-23.87 22.16,-36.6 27.14,-67.91 134.48,-81.84 127.57,-328.77 -24.35,19.51 -48.28,64.14 -65.13,73.34l7.68 -93.6 -47.98 38.37c59.19,-122.41 27.51,-75.54 135.46,-162.68 54.56,-44.03 106.92,-115.63 121.77,-188.12 -22.72,7.03 -49.25,25.26 -67.29,35.97l16.99 -46.71c-35.55,-1 -38.32,17.62 -69.67,20.05 25.25,-63.78 123.43,-119.54 167.57,-149.84 70.8,-48.6 100.31,-103.64 153.56,-175.36l-35.77 -2.06c2.03,-13.88 56.58,-117.74 68.72,-139.86 54.37,-99.11 197.2,-25.95 311.68,-113.25 43.71,-33.34 83.96,-75.37 122.88,-95.56l16.93 -11.59c-46.28,-1.69 -38.16,0.41 -71.08,16.67l-188.06 63.64 2.65 -39.74c43.88,-5.58 77.6,-26.61 135.62,-33.24l-25.01 -7.82c40.35,-11.94 68.62,-33.94 117.65,-47.43 97.82,-26.91 160.6,-22.89 241.28,-81.45 36.01,-26.13 65.51,-36.54 82.39,-81.65 -139.72,-0.77 -277.85,14.33 -374.06,112.74 -30.64,31.33 -49.41,63.41 -87.98,77.14 5.05,-24.41 13.08,-41.64 25.6,-60.71 8.58,-13.06 24.36,-37.29 30.78,-45.55 -51.75,11.54 -41.51,24.01 -107.3,72.18 -25.37,18.57 -20.91,27.78 -41.11,49.35 -37.06,39.58 -17.24,32.91 -48.56,32.4 5.02,-34.2 21.81,-26.29 22.4,-64.06z"/>
   <path class="fil5 str3" d="M5735.71 5072.75c16.03,18.7 25.25,37.31 34.73,65.37l-48.03 -10.22 15.95 52.6c-52.08,-14.33 -81.05,-53.22 -124.91,-68.89 6.15,19 57.88,90.36 74.3,116.37 23.19,36.73 46.93,86.02 71.31,116.68 14.91,18.74 80.46,69.94 103.35,84.37l133.76 56.59 -63.5 3.22c20.79,16.71 42.91,37.09 59.24,60.58 -50.42,-1.91 -85.18,-27.21 -130.47,-0.66 20.28,15.03 49.57,23.26 75.47,42.64 58.18,43.52 127.67,146.62 212.05,164.26 209.17,43.75 93.05,-55.95 228.58,57.12l104.08 84.79c-21.37,-4.2 -60.24,-11.56 -83.72,-14.48 -38.38,-4.76 -63.33,6.65 -98.28,9.13 -24.87,1.76 -58.24,-8.14 -87.32,-11.25 -44.47,-4.77 -58.47,1.85 -100.01,2.7 61.53,95.4 221.34,87.5 269.18,100.83 119.41,33.27 100.95,-74.52 295.8,7.81l189.03 66.39c-30.35,25.77 -344.85,115.47 -418.53,134.07 -50.23,12.68 -53.73,25.04 -66.1,72.33 -2.93,11.21 -5.12,24.84 -6.89,41.07 167.91,-79.08 170.34,-78.3 345.89,-144.03 35.99,-13.48 81.34,-35.71 120.41,-42.67 15.35,-9.9 3.89,-2.81 22.16,-9 13.02,-4.41 15.68,-5.34 28,-9.02l11.88 -46.45c-24.41,-20 -3.7,-7.65 -17.5,-27.87 -9.67,-14.15 -5.56,-4.18 -19.87,-9.23 -71.03,-21.86 -115.43,-39.96 -179.71,-70.86 -111.59,-53.65 -79.11,-157.33 -215.9,-269.47 -34.42,-28.21 -104.55,-87.96 -140.46,-105.76 19.26,47.08 103.73,152.45 124.8,252.28 -25.96,-10.95 -85.83,-65.93 -107.24,-90.18 -26.47,-29.99 -49.34,-91.87 -65.76,-128.78 -25.65,-57.66 -106.21,-189.92 -164.28,-221.48l7.06 61.05c-40.86,-30.7 -70.04,-84.91 -92.22,-104.05l-1.38 126.93c-11.37,-12.38 -23.02,-15.33 -31.6,-29.13 -10.53,-16.92 -11.12,-31.14 -11.14,-53.35 -0.1,-116.62 -6.09,-112.12 -51.14,-218.45 -17.06,-40.27 -18.83,-61.65 -28.43,-105.24l-12.09 33.83c-3.22,15.05 -2.41,21.57 -7.61,34.55 -28.21,-19.12 -39.84,-60.82 -62.3,-73.47l0.99 92.15c-33.88,-34.05 -69.09,-130.48 -70.62,-188.58 -1.13,-42.99 1.86,-87.88 -5.06,-130.59 -6.02,-37.2 -17.37,-64.46 -22.64,-100.65 1.68,15.45 0.99,29 3.72,43.75 2.47,13.38 6.01,18.63 6.75,31.78 0.78,14.08 -3.43,12 4.18,29.71 5.77,13.44 15.55,11.84 11.89,65.98 -4.58,67.81 -18.71,-10.36 -18.71,102.5 28.1,16.8 18.22,3.06 18.22,54.63 -21.31,-13.77 -1.85,-6.74 -30.33,-12.14 8.4,16.13 5.68,13.62 24.26,18.21 0,28.46 3.98,-0.26 -13.29,9.68z"/>
   <path class="fil5 str3" d="M8158.03 4101.81c18.86,302.05 -88.89,639.27 -221.78,890.79 -93.74,177.43 -66.87,75.98 -154.34,124.52 -43.58,24.18 -32.76,-6.31 -65.98,-9.3 -14.75,35.26 -8.37,82.47 -38.08,105.94 -18.46,14.59 -27.32,15.26 -41.58,30.78 -13.95,15.2 -16.77,26.44 -35.68,38.58 -41.8,-4.28 -24.31,-14.97 -48.57,-25.42 -17.3,17.2 -70.11,122.21 -152.77,128.61 -41.97,3.25 -29.18,-26.01 -41.49,-49 -33.74,29.58 -22.63,41.75 -67.01,71.57 -39.24,26.36 -29.96,56.79 -85.41,52.96l-1.19 -58.64c-35.26,51.95 -24.84,45.38 -85.61,63.73 -27.06,8.18 -75.08,41.31 -107.72,37.28l5.6 -51.54c-59.43,46.2 -38.25,60.29 -71.47,109.27 -29.73,-6.66 -50.79,-21.33 -66.77,-43.38l-7.04 18.03c-4.21,12.96 1.83,3.98 -5.11,18.3 -27.43,-21.66 -21.09,-29.41 -44.46,-53.47l-10.17 40.88c-21.44,-0.38 -31.43,-4.81 -45.96,-20.5 -7.76,-8.38 -9.09,-11.62 -14.78,-21.43l-12.11 -20.73 -21.67 29.55c-55.73,73.18 -183.88,-7.11 -200.61,-71.8l-32.69 26.74c-22.75,-18.36 -26.68,-52.99 -32.05,-89.69 -12.93,15.2 -12.84,26.48 -34.73,35.2 -49.45,-32.85 -45.83,-99.64 -38.39,-163.79 -31.43,16.43 -36.88,39.86 -49.38,63.07 -2.09,3.89 -4.81,8.62 -7.4,12.18 -10.12,13.86 2.24,1.11 -10.82,11.41 -13.21,-26.76 -31.14,-63.29 -53.61,-73.27 -58.84,-26.13 -24.42,-19.3 -54.85,-67.38l-16.94 34.47c-24.32,-16.6 -49.27,-11.14 -65.65,-36.27 -5.59,-8.57 -9.63,-24.97 -16.11,-31.85 -21.17,-22.47 8.16,12.96 -15.78,1.88 -7.28,-3.36 -66.15,-97.1 -77.22,-116.21 -176.63,-305.04 -238.24,-548.53 -255.76,-919.75 -21.61,-206.64 79.92,-601.32 170.13,-778.82 19.4,-38.18 43.17,-86.74 63.95,-124l145.69 -231.09c-47.81,48.7 -158.98,239.6 -190.57,301.29 -193.63,378.05 -245.53,804.76 -153.02,1225.75 71.72,326.42 215.63,579.02 410.99,809.27 40.15,47.32 69.36,69.99 126.13,116.51 76.37,62.57 197.65,131.39 319.82,166.65 91.3,34.77 209.26,46.54 321.18,47.67 60.35,0.62 116.77,-1.97 174.33,-12.74 59.6,-11.15 97.91,-23.45 151.64,-37.89 131.93,-38.77 284.1,-143.72 358.11,-211.74 93.14,-85.59 176.03,-198.76 249.96,-320.41 138.53,-227.93 257.76,-558.05 261.47,-873.45 4.69,-398.58 -65.36,-623.42 -211.47,-929.34 -39.29,-82.26 -169.15,-277.14 -229.51,-341.34 -47.61,-50.63 -89.28,-95.54 -147.12,-138.39 -29.63,-21.94 -136.72,-96.61 -176,-103.54 7.23,11.62 -4.14,-1 9.04,9.79l35.06 19.18c208.69,113.3 374.99,320.96 484.86,529.02l88.44 185.7c83.06,198.07 143.92,442.55 140.03,669.6z"/>
   <path class="fil6 str6" d="M5755.91 4894.65c3.23,-48.81 2.07,-47.56 -3.51,-60.55 -1.15,-17.5 -0.61,-16.6 -5.77,-29.84 -0.73,-13.14 -6.29,-20.58 -8.76,-33.97 -2.72,-14.75 -7.17,-26.19 -8.85,-41.64l-46.77 -178.72c-15.74,19.7 -19.6,55.34 -28.47,81.15 -8.3,-17.8 -16.64,-31.61 -24.14,-50.22 -8.03,-19.98 -8.55,-30.24 -19.3,-45.21l-9.39 110.93c-46.63,-67.35 10.29,-138 14.33,-214.62 3.44,-65.2 -1.03,-198.84 -12.94,-259.71 -28.02,37.55 -31.64,105.86 -53.64,137.47 -17.22,-30.18 -5.12,-51.01 -25.49,-85.38 -0.68,-1.15 -2.77,-1.71 -3.3,-4.36 -0.54,-2.71 -2.23,-3.01 -2.57,-4.02l-13.27 42.21c-7.42,-50.01 14.92,-51.53 38.22,-81.56 64.67,-83.37 34.74,-215.31 54.06,-310.27 -27.31,8.57 -32.45,25.26 -47.93,46.96l-0.08 -70.4 -17.56 -6.11c-7.26,12.74 -15.38,23.04 -22.15,36.61l-17.33 42.28c-28.74,96.15 -27.62,28.32 -27.62,103.24 -17.87,-42.01 -7.47,-46.42 -16.5,-78.94 -30.43,-18.41 -28.01,-51.89 -44.62,-78.04l-14.54 20.82c-7.86,9.29 -1.59,3.87 -9.3,9.3 -19.36,-24.46 -34.68,-42.08 -53.02,-60.75 -1.57,33.21 8.93,69.13 13.37,106.29 11.23,94.09 -8.57,192.18 89.55,275.61l-13.48 75.25c-25.36,-24.99 -37.46,-61.83 -61.1,-88.58 -23.12,84.52 24.51,219.06 60.4,281.13 61.77,106.84 152.8,118.2 150.66,203.41 -31.06,-21.87 -51.96,-72.53 -84.54,-89.99l6.26 62.65c-22.7,-14.19 -37.82,-53.38 -64,-60.68 51.81,221.68 62.35,139.85 118.59,273.08 49.39,117.01 86.25,137.87 125.93,157.74l0.47 0.9c31.19,17.33 57.71,34.44 76.1,55l37.98 -14.66c-23.92,-56.33 -17.01,-115.99 -25.53,-173.98l-0.45 0.17z"/>
   <path class="fil5 str3" d="M7182.31 5951.57l-139.82 58.36c23.86,24.88 6.96,41.44 12.39,102.69 29.41,2.45 65.63,6.11 80.81,22.74 8.94,9.78 12.58,37.48 34.9,39.01 46.08,3.18 12.11,3.89 24.94,-10.57l-39.3 -23.63c116.45,13.39 479.41,145.67 479.58,145.7 -14.67,-19.12 -31.68,-40.07 -48.82,-80.95l-3.58 -12.5c-52.47,-6.55 -427.89,-83.71 -497.08,-111.1 -23.51,-9.31 -14.34,-2.25 -25.98,-17.84 36.82,-31.66 134.67,-70.75 182.82,-95.44 216.8,-111.12 151.92,-93.99 309.45,-62.4 70.95,14.23 61.08,-2.73 120.81,-8.34 62.09,-5.82 65.28,-4.38 116.48,-31.25 1.18,-0.62 2.67,-1.5 3.9,-2.09 19.3,-9.3 58.44,-17.85 77,-42.02 -48.56,-13.32 -120.07,-26.67 -168.57,-20.04 -69.71,9.54 -106.54,-2 -174.46,0.46l118.6 -98.9c67.87,-46.75 113.4,-7.02 188.98,-29.24 27.39,-8.05 51.62,-25.41 74.09,-45.16l183.06 -154.77c-42.97,2.1 -84.95,6.44 -123.39,20.99l59.67 -94.29c-45.04,3.14 -91.33,11.7 -137.62,29.42 15.34,-40.9 27.75,-86.81 16.02,-122.71l-61.15 58.93 26.16 -84.33c-79.68,59.13 -142.72,130.76 -179.09,224.88l0 0c-19.9,40.72 -37.41,85.14 -57.82,137.49 -20.88,53.56 -51.08,63.47 -93.97,97.31 12.67,-82.2 98.97,-198.2 109.31,-242.79 -32.43,13.52 -43.21,27.96 -67.71,50.22 -80.12,72.83 -70.14,23.17 -165.49,180.78 -57.3,94.72 -14.94,96.27 -87.57,142.98 -39.49,25.4 -104.46,69.18 -147.55,78.4z"/>
   <path class="fil7 str1" d="M7187.28 5758.88l-13.76 1.76c-190.79,15.89 -230.01,29.36 -450.75,-5.25 -0.37,-0.5 -44.55,2.12 -45.92,2.09l-5.96 1.55 0 0 -53.75 4.78c-3.48,5.63 -6.2,11.19 -8.22,16.66 -31.12,84.2 103.48,147.96 176.85,181.34 28.24,12.85 48.52,23.32 79.54,39.05 2.03,11.95 0.41,8.28 7.27,16.09 10.14,10.88 1.56,2.85 14.25,15.58 0.69,15.63 8.12,18.09 16.29,22.47 17.62,-11.03 25.64,-38.62 54.25,-69.02 17.57,-18.66 35.29,-46.98 66.8,-53.86 39.31,48.37 21.75,68.76 -9.17,105.53 -46.4,55.18 -66.5,81.97 -122.88,112.28l-48.7 43.76c-94.78,86.85 -278.05,202.19 -394.82,261.2 -30.45,15.39 -33.45,13.08 -40.06,44.65 -3.61,17.19 -8.9,52.03 -7.7,73.97 40.8,-7.62 278.14,-176.66 315.35,-215.14 14.87,-15.37 83.51,-65.1 143.46,-124.21 26.49,-26.12 47.94,-61.34 66.45,-63.61 48.83,-5.98 48.32,18.07 108.7,-13.55 21.73,39.93 75.85,92.97 103.49,121.19 49.91,50.95 196.35,161.3 255.98,193.06 12.09,6.44 25.48,10.04 38.13,16.72 37.16,19.62 70.06,51.54 115.94,46.08 -48.89,-126.21 39.82,-54.12 -175.38,-156.39 -18.52,-8.8 -52.67,-30.11 -72.75,-43.11 -51.68,-33.46 -242.36,-172.17 -242.91,-212.1l104 71.94c83.41,60.05 52.31,32.34 117.19,70.65 60.84,35.93 192.16,85.73 268.04,107.59 16.07,-6.44 67.41,-51.2 69.63,-71.1l-220.29 -56.01c-98.95,-23.84 -106.5,-54.52 -157.52,-71.79 -40.74,-17.4 -23.13,-10.19 -82.12,-33.56 -13.57,-8.42 -17.36,-9.32 -29.78,-16.33 -21.02,-16.62 -42.78,-17.05 -72.19,-19.5 -5.43,-61.24 15.42,-68.28 -8.44,-93.16l136.49 -59.61 28.87 -21.5c127.45,-69.59 145.93,-90.25 113.64,-173.03 -12.67,-2.93 -23.56,-4.68 -33.28,-5.58l0 0 -0.02 0c-41.05,-3.82 -61.1,7.34 -104.24,7.42zm-133.48 201.64c48.74,-45.92 91.47,-83.35 141.4,-119.62l68.27 -11.22c-1.88,10.47 -2.72,8.95 -18.98,25.24 -8.16,8.18 -12.97,12.32 -22.34,20.03 -13.9,11.44 -40.29,33.38 -51.23,40.67l-84.48 49.34c-14.51,6.98 -39.1,10.27 -32.64,-4.44zm50.91 -111.57c-18.77,28.77 -33.62,55.91 -67.06,74.2 -9.76,3.28 -13.46,-3.34 -19.77,-5.18 -95.38,-27.95 -65.98,-0.87 -121.11,4.83 -26.65,-22.95 -52.79,-46.97 -74.61,-71.88l4.18 0.35c92.27,14.13 185.11,5.62 278.37,-2.32zm-356.99 -4.33c40.67,40.71 86.82,80.79 132.94,116.04 -0.54,1.69 -1.46,3.46 -2.84,5.34 -9.06,7.65 7.67,12.88 -28.39,1.18 -29.54,-9.58 -44.85,-27.64 -71.71,-43.02l-71.95 -70.61c-10.62,-11.98 2.04,7.42 -9.63,-13.3l51.58 4.37z"/>
   <path class="fil4 str5" d="M6041.01 4765.61c70.26,-0.49 410.11,-1.46 448.49,-19.53 17.05,-16.32 37.2,-23.99 66.93,-10.42 0.81,-1.24 1.62,-3.15 2.14,-3.9 0.5,-0.75 1.64,-2.87 2.3,-3.75l28.72 -20.74c13.27,-5.72 -0.86,-2.21 12.59,-4.68 19.64,-3.61 40.42,24.97 55.86,-10.93 25.83,-60.04 24.69,-5.71 21.31,-45.41l33.75 -14.16 -29.85 0.97 8.66 -54.8c7.39,-17.88 -4.58,-2.6 -4.37,-22.69 -133.84,-12.59 -426.63,6.6 -598.76,5.95 -103.95,-0.38 -54.12,28.92 -46.59,46.48 0.66,1.52 0.97,3.31 1.58,4.83 11.01,27.58 -10.64,1.35 19.6,26.39 1.35,1.12 5.29,4.58 6.62,5.69 22.02,18.55 17.39,12.06 63.08,20.37 51.22,9.33 147.62,-10.15 186.05,9.3 -16.72,8.85 -33.4,5.01 -54.67,16.15l299.98 5.46c-19.73,23.6 -12.34,15.62 -49.24,22.72 -56.17,10.81 6.54,26.97 -189.45,30.05l-266.7 6.15c-19.78,5.31 -6.49,-5.79 -18.03,10.5z"/>
   <path class="fil8 str7" d="M6897.51 3638.05c19.85,3.02 6.32,-6.94 10.45,16.47 7.14,40.48 -8.16,403.53 -1.03,455.85 -4.95,15.71 -3.88,90.06 -3.15,119 0.76,30.38 -6.78,291.11 -11.37,335l123.2 -2.34c-1.67,-45.71 -14.35,-290.79 -14.52,-319.44 -0.15,-24.87 -2.16,-119.09 4.82,-143.14 -14.3,-21.88 -8.43,-196.37 -9.87,-225.57 -3.94,-79.29 -3.3,-174.96 -3.83,-261.67 7.4,-6.85 -10,-7.95 11.23,-4.82l-40.28 -41.24c-38.06,13.46 -38.28,27.66 -45.61,41.93l-20.04 29.97z"/>
   <path class="fil7 str1" d="M6648.01 5609.69l-10.67 83.7c56.73,-21.82 259.68,26.68 331.77,27.11 114.79,0.69 220.14,-40.04 340.05,-32.15 -3.34,-25.3 -16.76,-66.96 -14,-81.62 -53.73,14.44 -92.04,26.74 -151.64,37.89 -57.56,10.77 -113.98,13.36 -174.33,12.74 -111.92,-1.13 -229.88,-12.9 -321.18,-47.67z"/>
   <path class="fil7 str1" d="M6839.93 6118.01c-13.96,5.98 -19.54,3.8 -69.49,24.04l-369.56 167.92c-28.54,10.48 -45.23,19.82 -69.43,26.79 9.8,25.78 37.06,51.21 55,66.9 20.51,8.01 237.72,-108.68 263.55,-122.99 31.88,-17.66 214.15,-120.22 244.45,-149.13l-3.21 -30.09c-12.32,3.68 -15.08,3.05 -28.1,7.45 -18.28,6.2 -10.91,4.53 -23.21,9.11z"/>
   <path class="fil3 str4" d="M7284.37 2533.54c47.78,5.48 55.61,61.02 139.45,97.01 28.87,12.39 60.3,15.55 88.13,27.18 26.89,11.24 58.3,39.23 73.95,41.68 -6.5,-20.87 -17.98,-40.23 -31.64,-54.61 -45.15,-47.6 -10.73,-23.9 -27.6,-57.65 -23.38,1.99 -21.54,28.4 -91.44,-35.72 -24.08,-22.09 -47.06,-54.14 -55.14,-94.35 33.57,0.3 63.38,9.5 93.52,16.83 32.8,7.97 14.12,-5.35 26.9,15.23 -1.62,0.98 -4.32,-0.27 -5.36,1.95 -1.84,3.96 -28.19,3.73 -38.66,13.44 61.11,2.37 112.66,-1.02 176.19,5.82 -14.13,-21.98 -23.56,-17.28 -55.48,-26.9 -21.45,-6.46 -41.68,-11.57 -60.83,-18.4 -57.68,-20.55 -95.46,-47.61 -108.18,-52.26 -57.14,76.17 -95.12,88.27 -123.81,120.75z"/>
   <polygon class="fil4 str8" points="6726.8,4567.54 6688.87,4642.25 6747.63,4719.96 6834.25,4743.28 7046.82,4731.97 7084.96,4654.16 7094.12,4575.87 7032.48,4561.71 "/>
   <path class="fil9 str9" d="M6407.57 4450.21c42,-21.06 36.73,-97.93 -31.84,-89 -104.81,30.28 -47.62,146.15 51.22,141.86l391.89 2.39c72.8,-1.65 148.23,0.05 168.02,23.91 19.98,22.56 -61.59,8.55 -132.04,0.21 -57.01,-3.41 -106.11,1.08 -167.28,25.99 -9.78,29.6 -7.97,60.15 -6.5,89.97l49.69 5.56c-13.88,-25.26 -24.43,-51.15 -3.75,-68.71 115.12,-10.98 282.71,-12.8 315.37,2.04 16.17,41.79 1.02,83.2 -23.2,117.9l41.67 2.8c42.31,-29.33 75.86,-64.9 102.76,-99.23 129.83,-38.84 311.52,-101.69 359,-94.44 58.73,29.92 136.92,-22.31 54.88,-70.26 -40.84,-23.98 -134.16,9.22 -185.27,28.73l-12.29 -30.57c38.7,-21.17 77.66,-34.44 121.22,-33.93 98.16,25.53 126.77,-55.98 34.81,-76.27 -65.8,-6.57 -270.69,96.8 -406.03,145.2 -28.44,-27.7 -53.96,-67.89 -205.06,-53.13l-517.27 28.98zm-30.45 -47.14c7.93,0 14.36,6.62 14.36,14.79 0,8.16 -6.43,14.78 -14.36,14.78 -7.94,0 -14.37,-6.62 -14.37,-14.78 0,-8.17 6.43,-14.79 14.37,-14.79zm779.01 120.08c13.89,7.53 11.43,23.23 8.96,35.44 64.91,-29.34 132.54,-50.49 194.73,-65.8 -14.8,-14.15 -21.03,-30.25 -23.37,-47.12 -54.26,30.89 -115.53,59.83 -180.32,77.48z"/>
   <path class="fil10 str10" d="M6486.62 4747.22c1.63,18.05 40.53,18.61 76.1,12.91l789.59 -8.14c55.92,1.49 156.81,-10.97 46.14,-23.22 -61.92,-2.04 -123.92,-3.94 -181.33,-13.86 -8.17,-44.47 -54.2,-54.04 -64.46,-3.15 -23.51,1.41 -3.56,-18.74 -8.74,-31.08 -11.45,-7.27 -46.01,6.07 -64.95,19.41 -18.4,-3.97 -40.97,-7.11 -63.33,-0.05 -23.87,-12.91 -56.5,-18.74 -62.46,22.07 -7.12,-8.43 -17.35,-15.82 -34.16,-12.49 -9.99,2.05 -15.82,7.42 -22.49,15.82 -8.74,-5.02 -20.62,-7.76 -32.9,-5.5 -12.7,-20.27 -46.23,-14.73 -51.86,6.64 -5.76,-19.12 -14.02,-41.99 -56.01,-49.87 -0.48,-19.87 -8.45,-54.74 -52.65,-56.29l-24.23 9.8c-14.09,7.77 -33.17,18.87 -32.27,39.55 -2.77,15.27 -17.18,26.45 -42.44,21.1 -20.48,8.26 -41.59,18.4 -48.94,41.02 -29.81,-10.36 -58.37,-10.95 -68.61,15.33z"/>
   <line class="fil2 str11" x1="6640.51" y1="5679.49" x2="6616.46" y2= "5767.16" />
   <path class="fil2 str11" d="M7305.86 5679.55c7.78,25.97 15,53.13 18.2,79.52"/>
   <path class="fil11" d="M6624.16 2042.86c43.65,-33.22 95.26,-52.8 144.97,-57.78 50,-5.02 98.18,4.73 134.61,30.18l-5.39 7.71c-34.52,-24.12 -80.45,-33.32 -128.29,-28.53 -48.05,4.82 -97.95,23.76 -140.19,55.91l-5.71 -7.49z"/>
   <path class="fil11" d="M6655.53 2078.9c41.15,-36.61 80.12,-50.29 116.99,-50.32 36.72,-0.04 71.07,13.51 103.33,31.4l-4.58 8.23c-31.04,-17.22 -63.95,-30.26 -98.75,-30.23 -34.66,0.03 -71.5,13.07 -110.72,47.96l-6.27 -7.04z"/>
   <path class="fil11" d="M7022.73 2015.91c53.83,-32.29 105.99,-45.43 151.56,-42.84 49.22,2.79 90.77,23.87 118.59,58.94l-7.38 5.87c-26.14,-32.96 -65.28,-52.77 -111.72,-55.4 -43.8,-2.49 -94.09,10.24 -146.21,41.51l-4.84 -8.08z"/>
   <path class="fil11" d="M7041.36 2058.8c6.89,-9.25 16.3,-17.01 27.43,-23.22 23.96,-13.39 56.09,-19.68 88.03,-18.25 32,1.44 63.96,10.62 87.52,28.18 10.85,8.08 19.95,17.94 26.47,29.63l-8.22 4.57c-5.85,-10.47 -14.04,-19.33 -23.85,-26.64 -22,-16.39 -52.08,-24.97 -82.32,-26.33 -30.29,-1.36 -60.61,4.53 -83.06,17.07 -9.99,5.57 -18.38,12.46 -24.44,20.59l-7.56 -5.6z"/>
   <path class="fil11" d="M6678.95 2094.8c31.59,17.16 64.59,25.18 95.59,24.65 31.78,-0.54 61.45,-10.06 85.31,-27.9 -22,-21.4 -50.93,-33.79 -83.75,-33.23 -29.84,0.5 -62.97,11.69 -97.15,36.48zm95.74 34.06c-34.7,0.58 -71.73,-8.98 -106.73,-29.46l-6.04 -3.54 5.56 -4.26c37.91,-29.09 75.02,-42.12 108.47,-42.69 37.43,-0.63 70.18,14.32 94.37,39.87l3.49 3.69 -3.93 3.19c-26.18,21.25 -59.47,32.59 -95.19,33.2z"/>
   <path class="fil11" d="M6811.38 2053.9c3.57,3.65 6.43,7.87 8.38,12.49 1.91,4.49 2.95,9.32 2.95,14.33 0,11.61 -5.49,22.09 -14.37,29.64 -8.66,7.38 -20.58,11.94 -33.66,11.94 -13.1,0 -25.01,-4.56 -33.67,-11.94 -8.88,-7.55 -14.37,-18.03 -14.37,-29.64 0,-4.41 0.8,-8.67 2.28,-12.67 1.51,-4.1 3.75,-7.93 6.59,-11.39l0.99 -1.21 1.5 -0.37c11.79,-2.95 24.12,-4.52 35.89,-4.94 12.84,-0.46 24.99,0.45 35.02,2.41l1.43 0.29 1.04 1.06zm-0.29 16.14c-1.29,-3.06 -3.15,-5.93 -5.46,-8.5 -9.12,-1.66 -19.98,-2.4 -31.41,-1.99 -10.58,0.38 -21.68,1.75 -32.39,4.3 -1.71,2.29 -3.08,4.79 -4.06,7.44 -1.09,2.97 -1.68,6.14 -1.68,9.43 0,8.75 4.2,16.7 11,22.48 7.01,5.97 16.76,9.66 27.59,9.66 10.82,0 20.57,-3.69 27.58,-9.66 6.8,-5.78 11,-13.73 11,-22.48 0,-3.77 -0.76,-7.37 -2.17,-10.68z"/>
   <path class="fil11" d="M6800.88 2053.03c1.86,2.92 3.33,6.17 4.31,9.64 0.95,3.36 1.47,6.92 1.47,10.6 0,9.44 -3.36,18.03 -8.78,24.28 -5.59,6.44 -13.36,10.43 -21.97,10.43 -8.61,0 -16.37,-3.99 -21.97,-10.43 -5.42,-6.25 -8.78,-14.84 -8.78,-24.28 0,-3.4 0.45,-6.72 1.28,-9.88 0.86,-3.27 2.13,-6.33 3.72,-9.09l1.14 -1.96 2.26 -0.34c7.37,-1.1 14.84,-1.73 22.14,-1.91 7.61,-0.2 14.95,0.08 21.69,0.78l2.26 0.23 1.23 1.93zm-4.76 12.19c-0.52,-1.85 -1.22,-3.59 -2.06,-5.21 -5.73,-0.49 -11.84,-0.68 -18.13,-0.52 -6.04,0.16 -12.31,0.65 -18.65,1.51 -0.71,1.5 -1.3,3.11 -1.73,4.77 -0.62,2.36 -0.94,4.87 -0.94,7.5 0,7.12 2.47,13.52 6.46,18.12 3.82,4.41 9.08,7.14 14.84,7.14 5.76,0 11.01,-2.73 14.84,-7.14 3.99,-4.6 6.46,-11 6.46,-18.12 0,-2.84 -0.38,-5.54 -1.09,-8.05z"/>
   <path class="fil11" d="M7060.66 2083.09c22.17,17.09 55.66,24.67 88.56,23.8 34.14,-0.9 67.4,-10.9 86.43,-28.77l-0.04 -0.05c-20.15,-21.09 -50.31,-31.42 -82.02,-30.89 -31.91,0.53 -65.31,12.08 -91.62,34.75l-1.31 1.16zm88.78 33.21c-37.11,0.98 -75.18,-8.39 -99.07,-29.51l-3.84 -3.39 3.71 -3.54c1.93,-1.84 3.79,-3.53 5.57,-5.07 28.05,-24.14 63.63,-36.45 97.64,-37.02 34.23,-0.57 66.95,10.74 88.98,33.81 1.11,1.16 2.22,2.38 3.3,3.63l2.73 3.18 -2.86 3.09c-20.13,21.68 -57.78,33.8 -96.16,34.82z"/>
   <path class="fil11" d="M7176.37 2039.61c4.6,3.96 8.32,8.73 10.86,14.04 2.46,5.2 3.84,10.89 3.84,16.84 0,11.89 -5.42,22.65 -14.17,30.41 -8.6,7.62 -20.43,12.34 -33.45,12.34 -13.02,0 -24.85,-4.72 -33.45,-12.34 -8.75,-7.76 -14.17,-18.51 -14.17,-30.41 0,-3.87 0.58,-7.62 1.66,-11.2 1.1,-3.67 2.75,-7.15 4.85,-10.37l0.9 -1.38 1.52 -0.52c10.83,-3.72 22.36,-6.26 33.83,-7.68 12.02,-1.48 24,-1.74 35.08,-0.85l1.53 0.12 1.17 1zm2.35 18.1c-1.78,-3.7 -4.28,-7.06 -7.35,-9.94 -10.02,-0.69 -20.81,-0.4 -31.64,0.94 -10.28,1.28 -20.6,3.49 -30.34,6.71 -1.2,2.06 -2.17,4.26 -2.86,6.57 -0.82,2.7 -1.25,5.55 -1.25,8.5 0,9.1 4.19,17.36 10.95,23.36 6.93,6.14 16.55,9.94 27.22,9.94 10.67,0 20.29,-3.8 27.21,-9.94 6.77,-6 10.96,-14.26 10.96,-23.36 0,-4.56 -1.03,-8.88 -2.9,-12.78z"/>
   <path class="fil11" d="M7167.77 2039.78c2.52,3.13 4.53,6.75 5.89,10.69 1.31,3.79 2.03,7.9 2.03,12.17 0,9.53 -3.55,18.19 -9.29,24.48 -5.85,6.4 -13.96,10.37 -22.94,10.37 -8.97,0 -17.08,-3.97 -22.93,-10.37 -5.74,-6.29 -9.29,-14.95 -9.29,-24.48 0,-3.04 0.38,-6.03 1.08,-8.91 0.72,-2.96 1.79,-5.77 3.15,-8.34l0.99 -1.87 2.08 -0.51c7.46,-1.82 15.08,-3.13 22.63,-3.95 7.76,-0.85 15.51,-1.18 23.02,-1.03l2.21 0.05 1.37 1.7zm-3.03 13.76c-0.77,-2.22 -1.8,-4.28 -3.04,-6.13 -6.34,-0.04 -12.9,0.29 -19.53,1.01 -6.45,0.71 -12.92,1.78 -19.26,3.23 -0.59,1.38 -1.08,2.81 -1.44,4.3 -0.51,2.09 -0.79,4.33 -0.79,6.69 0,7.11 2.61,13.52 6.83,18.13 4.1,4.49 9.74,7.27 15.95,7.27 6.22,0 11.86,-2.78 15.96,-7.27 4.22,-4.61 6.82,-11.02 6.82,-18.13 0,-3.21 -0.53,-6.29 -1.5,-9.1z"/>
  </g>
  <rect class="fil2 str12" x="4313.47" y="938.85" width="5183.54" height="6001.17"/>
 </g>
</svg>
